<svg width="80" height="80" fill="none" xmlns="http://www.w3.org/2000/svg"><path fill-rule="evenodd" clip-rule="evenodd" d="M75.292 8L40 70 4.708 8h70.584zm.57-1H80l-.58 1-38.842 67.003L40 76l-.578-.997L.58 8 0 7h4.138l.57 1H1.736L40 74.006 78.264 8h-2.972l.57-1zm0 0L77 5H3l1.138 2h71.724z" fill="#F2E311"/><path d="M29.985 16.22c3.39 1.066 6.833.763 9.42-1.877.167-.17.301-.273.403-.307.305-.104.518.027.743.26 1.705 1.77 3.811 2.599 6.318 2.486a11.982 11.982 0 003.204-.584c.171-.056.357.082.329.259a.607.607 0 01-.122.235c-.966 1.32-1.745 2.326-2.338 3.02-.139.162-.44.272-.675.315-2.427.451-4.941-.11-6.735-1.872-.241-.238-.412-.382-.729-.26a.876.876 0 00-.271.2c-1.841 1.817-4.337 2.393-6.85 1.929a1.209 1.209 0 01-.742-.444 78.725 78.725 0 01-2.312-3.006c-.098-.134-.015-.315.11-.367.059-.024.14-.02.247.014zM50.93 31.744c-.118 1.094-.156 1.745-.646 2.493-.192.294-.476.631-.852 1.012a35.375 35.375 0 01-2.168 2.02 71.97 71.97 0 01-5.935 4.572c-.15.104-.272.156-.367.157-.263.002-.347-.233-.347-.474-.002-.946-.001-1.89 0-2.835.002-.504-.015-.687.428-.901 2.145-1.043 4.151-2.648 5.691-4.396a5.05 5.05 0 001.106-2.095c.036-.14.117-.544.242-1.213a38.78 38.78 0 00.624-8.963c-.01-.227.078-.458.267-.692a85.304 85.304 0 002.58-3.372.296.296 0 01.157-.102c.238-.023.293.145.29.353a79.555 79.555 0 01-.15 3.906 239.522 239.522 0 01-.92 10.53zm-21.79.678c-.446-4.063-.815-8.127-1.042-12.09a67.085 67.085 0 01-.098-3.14c-.002-.236.312-.316.441-.144 1.17 1.568 2.059 2.724 2.664 3.468.155.191.188.536.177.816-.12 2.965.104 5.952.673 8.962.11.586.22 1.06.332 1.425.395 1.293 1.618 2.4 2.633 3.32a17.683 17.683 0 004.069 2.767c.22.11.395.26.395.503v3.326c0 .327-.355.463-.607.289a79.228 79.228 0 01-5.392-4.091 33.387 33.387 0 01-3.14-2.948c-.716-.768-.994-1.44-1.105-2.462z" fill="#000"/><path d="M45.541 32.855c-1.488 1.531-3.077 2.877-4.87 3.734-.439.21-.9.203-1.387-.02-.435-.2-.986-.527-1.651-.983a19.072 19.072 0 01-3.409-2.978c-.557-.618-.795-1.235-.974-2.114-.6-2.948-.85-5.851-.747-8.708.008-.21.098-.348.271-.413.086-.032.232-.036.437-.013.527.06 1.056.077 1.588.052 1.807-.084 3.46-.699 4.962-1.845.185-.142.403-.046.585.091 1.91 1.44 4.106 1.95 6.49 1.695.432-.047.646.093.657.534a38.307 38.307 0 01-.74 8.562c-.21 1.042-.503 1.678-1.212 2.406z" fill="#000"/></svg>