<svg width="80" height="80" fill="none" xmlns="http://www.w3.org/2000/svg"><path fill-rule="evenodd" clip-rule="evenodd" d="M75.292 8L40 70 4.708 8h70.584zm.57-1H80l-.58 1-38.842 67.003L40 76l-.578-.997L.58 8 0 7h4.138l.57 1H1.736L40 74.006 78.264 8h-2.972l.57-1zm0 0L77 5H3l1.138 2h71.724z" fill="#F2E311"/><path d="M30.375 17H42.21a3.377 3.377 0 013.376 3.373V32.2a3.372 3.372 0 01-3.376 3.374H30.375A3.377 3.377 0 0127 32.2V20.373A3.372 3.372 0 0130.375 17zm4.059 5.572a1.856 1.856 0 00-1.858-1.857 1.86 1.86 0 00-1.859 1.857 1.857 1.857 0 003.173 1.313c.348-.348.544-.82.544-1.313zm7.434 0a1.857 1.857 0 00-1.858-1.858 1.86 1.86 0 00-1.718 2.568 1.856 1.856 0 002.429 1.005 1.856 1.856 0 001.147-1.716zM34.434 30a1.857 1.857 0 00-1.858-1.857A1.86 1.86 0 0030.716 30a1.857 1.857 0 003.173 1.314A1.86 1.86 0 0034.433 30zm7.434 0a1.857 1.857 0 00-1.858-1.857A1.86 1.86 0 0038.15 30a1.857 1.857 0 003.173 1.314A1.86 1.86 0 0041.867 30z" fill="#000"/><path d="M47.119 34.03c.255-.674.323-1.3.323-2.095.002-1.955.002-3.91 0-5.866 0-.514.512-.887 1-.69.095.04.212.128.35.267.98.987 1.96 1.976 2.936 2.967.375.38.628.672.758.876a3.381 3.381 0 01-.06 3.675c-.128.189-.386.476-.773.863-2.656 2.654-5.312 5.307-7.97 7.96-1.34 1.336-3.453 1.36-4.796.018a4452.9 4452.9 0 01-3.224-3.223c-.16-.16-.258-.295-.295-.406a.742.742 0 01.389-.878c.098-.045.25-.067.457-.067 2.035-.001 4.07-.002 6.104 0 2.123 0 4.055-1.426 4.8-3.4z" fill="#000"/></svg>