<svg width="80" height="80" fill="none" xmlns="http://www.w3.org/2000/svg"><path fill-rule="evenodd" clip-rule="evenodd" d="M75.292 8L40 70 4.708 8h70.584zm.57-1H80l-.58 1-38.842 67.003L40 76l-.578-.997L.58 8 0 7h4.138l.57 1H1.736L40 74.006 78.264 8h-2.972l.57-1zm0 0L77 5H3l1.138 2h71.724z" fill="#F2E311"/><path d="M36.405 22.42c-.23.296-.263.711-.337 1.117-.062.34-.312.42-.636.42h-7.765c-.275 0-.46-.11-.554-.33-.053-.123-.064-.3-.034-.53a6.373 6.373 0 011.49-3.369c.7-.825 1.585-1.456 2.629-1.656.248-.047.621-.07 1.118-.071h15.369c.49 0 .862.026 1.117.078 2.248.462 3.774 2.724 4.1 4.895.041.276.043.475.004.596-.113.347-.42.388-.767.388h-7.728c-.614 0-.49-.979-.717-1.394-.184-.337-.474-.505-.87-.505h-5.647c-.327 0-.584.12-.772.36z" fill="#000"/><path d="M39.362 26.249c-1.03-.598-1.083-2.121.03-2.656.986-.473 2.098.209 2.11 1.327.007.57-.255 1.014-.786 1.331a.047.047 0 00-.025.043c-.003.387-.003.775-.001 1.162.001.233-.023.403-.075.511-.236.504-.959.47-1.172-.043a.968.968 0 01-.049-.361c.003-.424.002-.847-.006-1.27a.049.049 0 00-.026-.044z" fill="#000"/><path d="M39.642 30.854c.235.149.549.118.773-.024a33.368 33.368 0 003.723-2.761c.338-.29.565-.6.483-1.033-.07-.369-.143-.737-.216-1.104-.046-.228-.052-.394-.017-.497.097-.292.352-.32.645-.32h7.098c.383 0 .677.014.819.374.033.085.05.216.05.396-.002 4.063-.002 8.126 0 12.188 0 .438-.028.748-.085.93-.215.687-.795.993-1.487.993-7.649 0-15.298.002-22.946.004A1.46 1.46 0 0127 38.514c.002-4.244.002-8.487.002-12.73 0-.438.221-.657.665-.658 2.438-.007 4.875-.01 7.313-.011.543 0 .735.221.627.757-.063.313-.123.625-.183.939-.087.465-.063.826.285 1.127a33.256 33.256 0 003.933 2.916zm-7.399 6.998a.546.546 0 00.512-.348.565.565 0 00-.127-.61l-2.508-2.466a.55.55 0 00-.935.4v2.464c0 .148.058.29.161.395a.548.548 0 00.39.163l2.507.002zm18.572-3.025a.562.562 0 00-.335-.513.544.544 0 00-.598.113l-2.509 2.467a.558.558 0 00-.126.609.555.555 0 00.51.347l2.507.002a.545.545 0 00.509-.343.563.563 0 00.042-.214v-2.468z" fill="#000"/></svg>