<svg width="80" height="80" fill="none" xmlns="http://www.w3.org/2000/svg"><path fill-rule="evenodd" clip-rule="evenodd" d="M75.292 8L40 70 4.708 8h70.584zm.57-1H80l-.58 1-38.842 67.003L40 76l-.578-.997L.58 8 0 7h4.138l.57 1H1.736L40 74.006 78.264 8h-2.972l.57-1zm0 0L77 5H3l1.138 2h71.724z" fill="#F2E311"/><path d="M51.296 32.062l.035-.116a11.967 11.967 0 000-7.892l-.035-.115A12.023 12.023 0 0040 16a12.023 12.023 0 00-11.296 7.939l-.035.115a11.967 11.967 0 000 7.892l.035.116A12.046 12.046 0 0040 40a12.023 12.023 0 0011.296-7.938zM40 18.492a12.532 12.532 0 012.942 4.893h-5.884A12.532 12.532 0 0140 18.492zm-2.942 14.123h5.884A12.532 12.532 0 0140 37.508a12.532 12.532 0 01-2.942-4.893zm-.485-1.846a14.586 14.586 0 010-5.538h6.854a14.572 14.572 0 010 5.538h-6.854zm8.735-5.538h4.465a10.258 10.258 0 010 5.538h-4.465a16.73 16.73 0 000-5.538zm3.738-1.846h-4.154a14.85 14.85 0 00-2.78-5.32 10.222 10.222 0 016.934 5.32zm-6.934 14.55a14.85 14.85 0 002.78-5.32h4.154a10.224 10.224 0 01-6.934 5.32z" fill="#000"/></svg>