<svg width="80" height="80" fill="none" xmlns="http://www.w3.org/2000/svg"><path fill-rule="evenodd" clip-rule="evenodd" d="M75.292 8L40 70 4.708 8h70.584zm.57-1H80l-.58 1-38.842 67.003L40 76l-.578-.997L.58 8 0 7h4.138l.57 1H1.736L40 74.006 78.264 8h-2.972l.57-1zm0 0L77 5H3l1.138 2h71.724z" fill="#F2E311"/><path d="M50.952 24.411c-.178-1.556-.814-3.055-1.847-4.333-1.907-2.358-4.504-3.694-7.792-4.01-2.054-.197-3.988.033-5.801.69-3.506 1.27-6.04 4.272-6.46 7.624A9.779 9.779 0 0029 25.53v5.756c0 .605.358 1.03.873 1.535 1.453 1.425 3.077 2.566 4.92 3.566a40.41 40.41 0 012.061 1.2c.215.135.38.207.498.219.358.034.512-.238.528-.527l.128-2.332c.038-.684-.175-1.259-.638-1.723-.142-.142-.475-.377-1-.705a43.95 43.95 0 01-3.259-2.244c-.488-.369-1.013-.825-1.168-1.4a4.66 4.66 0 01-.138-1.712c.023-.23.083-.396.178-.498.269-.289.618-.168.963-.012 1.08.489 2.193.91 3.338 1.264.37.114.641.22.812.317.507.288.875.676 1.103 1.166.094.201.173.508.236.92.061.398.121.795.18 1.193a.84.84 0 00.398.62c.55.343 1.873.32 2.24-.252.066-.104.117-.266.152-.487.1-.634.148-1.425.382-1.952.225-.508.598-.91 1.12-1.206.175-.099.462-.211.862-.336a29.71 29.71 0 003.45-1.318c.316-.144.673-.125.858.154.061.092.101.24.12.444.062.65.03 1.497-.3 2.078-.22.387-.661.746-1.031 1.03-1.165.895-2.39 1.683-3.635 2.485-.32.206-.547.385-.683.538-.495.557-.584 1.081-.546 1.832.052 1 .093 1.749.125 2.244.023.36.467.547.808.332.44-.276.872-.55 1.334-.807.793-.44 1.656-.899 2.363-1.34a19.38 19.38 0 003.934-3.212c.276-.297.415-.654.417-1.074.008-1.909.013-3.818.014-5.728 0-.497-.014-.879-.045-1.146zm-7.51 17.519c2.6-.87 4.828-2.345 6.477-4.305.763-.908 1.13-1.865 1.076-3-.02-.431-.395-.532-.727-.242-1.347 1.175-2.801 2.15-4.416 3.015a27.784 27.784 0 00-3.073 1.902c-.397.285-.503.63-.485 1.103.011.301.027.601.047.9.04.59.514.823 1.1.627zm-9.27-4.503a23.822 23.822 0 01-4.508-3.1.414.414 0 00-.377-.087c-.175.049-.268.174-.278.376-.077 1.484.578 2.564 1.643 3.658 1.614 1.659 3.574 2.874 5.88 3.646.396.133.776.123 1.005-.207.07-.101.112-.261.128-.48.042-.575.06-.943.056-1.105-.015-.419-.321-.703-.716-.977a27.602 27.602 0 00-2.833-1.724z" fill="#000"/></svg>