<svg width="80" height="80" fill="none" xmlns="http://www.w3.org/2000/svg"><path fill-rule="evenodd" clip-rule="evenodd" d="M75.292 8L40 70 4.708 8h70.584zm.57-1H80l-.58 1-38.842 67.003L40 76l-.578-.997L.58 8 0 7h4.138l.57 1H1.736L40 74.006 78.264 8h-2.972l.57-1zm0 0L77 5H3l1.138 2h71.724z" fill="#F2E311"/><path d="M38.202 21.006c-.114-.234-.124-.534.034-.752 1.982-2.745 4.913-4.314 8.21-4.252.607.011 1.059.279 1.356.802l5.291 9.343c.26.457.312.956-.135 1.292-.103.077-.27.142-.502.194-3.12.703-5.78 2.854-7.6 5.557-.266.396-.531.443-.755-.02-1.966-4.055-3.932-8.11-5.9-12.164zm5.544-1.17a7.15 7.15 0 00-2.472 2.015c-.464.588.33 1.334.9.677.627-.721 1.337-1.321 2.195-1.691.19-.081.313-.157.373-.228.292-.343.044-.924-.39-.954-.194-.012-.433.096-.606.182zm2.293 3.406c.144-.066.401-.152.771-.259.548-.159.565-.988.003-1.133-.11-.028-.255-.018-.434.03-1.523.417-2.843 1.467-3.787 2.764-.351.481.218 1.157.723.849.08-.049.201-.178.366-.39a6.248 6.248 0 012.358-1.861zm2.84 1.514c-2.113.08-3.947 1.277-4.854 3.289-.24.533.352 1.113.827.748.074-.057.153-.172.237-.345.76-1.567 2.15-2.424 3.834-2.52a.86.86 0 00.348-.073c.414-.224.4-.865-.036-1.053a.84.84 0 00-.357-.046zm-10.885 9.13c-1.689.185-3.436.745-4.766 1.74-.252.189-.416.35-.729.362-.388.014-.67-.171-.848-.557l-4.8-10.425c-.206-.445-.051-.795.271-1.145 2.51-2.72 6.013-3.858 9.568-3.015.13.031.298.258.37.407l5.952 12.268c.08.164.115.291.106.383-.025.263-.268.32-.493.271-1.598-.355-3.141-.45-4.63-.289zm-2.413-10.75c-1.54-.369-3.129-.047-4.46.852-.165.111-.274.211-.328.299-.226.372.083.891.496.878.243-.008.468-.21.685-.34 1.078-.641 2.215-.819 3.413-.531.21.05.361.064.455.04.39-.1.512-.711.231-.979-.095-.09-.26-.164-.492-.22zm-3.067 3.677c-.641.314-1.178.681-1.61 1.103-.415.408-.038 1.173.525.994.082-.025.2-.102.355-.23 1.475-1.225 3.151-1.637 5.028-1.236.212.045.363.057.452.036.38-.09.526-.673.266-.951-.09-.096-.246-.17-.468-.224-1.568-.377-3.084-.208-4.548.508zm1.593 3.55c-.27.137-.441.236-.512.295-.432.367-.207 1.103.337 1.07.1-.007.228-.058.383-.153 1.24-.762 2.759-.94 4.15-.63.201.046.351.053.45.024.355-.107.517-.61.28-.917-.163-.21-.375-.233-.63-.282-1.58-.306-3.066-.108-4.458.593z" fill="#000"/><path d="M33.945 36.783c2.87-2.036 6.639-1.865 9.825-.913.472.142.654.514.89 1.034.084.189.116.34.094.455-.056.297-.313.355-.583.325a14.933 14.933 0 00-4.404.17c-2.594.481-4.781 1.703-6.56 3.663-.187.206-.34.337-.462.393-.435.204-.992.05-1.278-.345-.044-.06-.148-.268-.313-.625l-5.866-12.698c-.176-.38-.271-.657-.285-.83-.033-.396.242-1.077.721-1.055.251.011.368.17.478.408l4.303 9.347a2.15 2.15 0 002.775 1.082c.14-.059.362-.196.665-.41zm19.668-6.079c.3.517.607 1.03.923 1.539.25.402.312.868-.143 1.13-.25.145-.62.1-.917.112-2.56.094-5.153.96-6.898 2.997-.12.14-.226.224-.32.254-.314.098-.48-.12-.615-.398-.154-.316-.306-.631-.457-.948-.034-.071-.019-.165.047-.283 1.705-3.068 4.426-5.536 7.83-6.21.335-.067.816-.619 1.145-.163.097.136.302.435.612.9.112.166.171.305.179.418.026.41-.395.561-.745.519-.133-.017-.34.014-.625.092-.023.006-.028.02-.016.041z" fill="#000"/></svg>