<svg width="16" height="17" fill="none" xmlns="http://www.w3.org/2000/svg"><g clip-path="url(#clip0_1665_2673)"><path d="M4.375 5.091c-.073.76-.124 2.105.334 2.678 0 0-.216-1.478 1.716-3.331.778-.747.958-1.762.687-2.523-.155-.431-.437-.787-.681-1.036A.223.223 0 016.605.5c1.258.055 3.296.398 4.162 2.528.38.935.408 1.9.226 2.883-.114.628-.522 2.023.409 2.194.664.123.985-.395 1.13-.767a.229.229 0 01.38-.07c1.122 1.25 1.217 2.725.985 3.993-.449 2.453-2.982 4.238-5.5 4.238-3.145 0-5.648-1.764-6.297-4.956-.262-1.29-.13-3.84 1.899-5.64.15-.134.396-.014.376.188z" fill="url(#paint0_radial_1665_2673)"/><path d="M9.546 9.678c-1.16-1.463-.64-3.132-.356-3.797.039-.087-.063-.17-.144-.116-.498.333-1.52 1.115-1.996 2.216-.644 1.49-.598 2.218-.216 3.108.23.536-.037.65-.171.67-.13.02-.25-.065-.346-.154a2.003 2.003 0 01-.566-.95c-.02-.077-.124-.099-.171-.035-.357.484-.542 1.26-.551 1.809-.028 1.696 1.402 3.071 3.13 3.071 2.18 0 3.768-2.363 2.516-4.337-.364-.575-.706-.952-1.129-1.485z" fill="url(#paint1_radial_1665_2673)"/></g><defs><radialGradient id="paint0_radial_1665_2673" cx="0" cy="0" r="1" gradientUnits="userSpaceOnUse" gradientTransform="rotate(-179.756 3.904 7.761) scale(9.00205 14.4785)"><stop offset=".314" stop-color="#FF9800"/><stop offset=".662" stop-color="#FF6D00"/><stop offset=".972" stop-color="#F44336"/></radialGradient><radialGradient id="paint1_radial_1665_2673" cx="0" cy="0" r="1" gradientUnits="userSpaceOnUse" gradientTransform="matrix(-.09513 9.23142 -7.08804 -.07304 8.28 6.757)"><stop offset=".214" stop-color="#FFF176"/><stop offset=".328" stop-color="#FFF27D"/><stop offset=".487" stop-color="#FFF48F"/><stop offset=".672" stop-color="#FFF7AD"/><stop offset=".793" stop-color="#FFF9C4"/><stop offset=".822" stop-color="#FFF8BD" stop-opacity=".804"/><stop offset=".863" stop-color="#FFF6AB" stop-opacity=".529"/><stop offset=".91" stop-color="#FFF38D" stop-opacity=".209"/><stop offset=".941" stop-color="#FFF176" stop-opacity="0"/></radialGradient><clipPath id="clip0_1665_2673"><path fill="#fff" transform="translate(0 .5)" d="M0 0h16v16H0z"/></clipPath></defs></svg>