<svg width="24" height="24" fill="none" xmlns="http://www.w3.org/2000/svg"><path d="M8.683 3h6.634a1 1 0 01.707.293l4.683 4.683a1 1 0 01.293.707v6.634a1 1 0 01-.293.707l-4.683 4.683a1 1 0 01-.707.293H8.683a1 1 0 01-.707-.293l-4.683-4.683A1 1 0 013 15.317V8.683a1 1 0 01.293-.707l4.683-4.683A1 1 0 018.683 3z" stroke="#F2E311" stroke-width="2" stroke-miterlimit="10" stroke-linecap="round" stroke-linejoin="round"/><path d="M13.5 8a1.5 1.5 0 11-3 0 1.5 1.5 0 013 0z" fill="#F2E311"/><path d="M12 12v4" stroke="#F2E311" stroke-width="2" stroke-linecap="round" stroke-linejoin="round"/></svg>