<svg width="16" height="17" fill="none" xmlns="http://www.w3.org/2000/svg"><path d="M4.987 12.733l2.067 1.6c.267.267.867.4 1.267.4h2.533c.8 0 1.667-.6 1.867-1.4l1.6-4.866c.333-.934-.267-1.734-1.267-1.734h-2.667c-.4 0-.733-.333-.666-.8l.333-2.133c.133-.6-.267-1.267-.867-1.467-.533-.2-1.2.067-1.466.467L4.987 6.867" stroke="#48CD90" stroke-width="1.5" stroke-miterlimit="10"/><path d="M1.587 12.733V6.2c0-.933.4-1.267 1.333-1.267h.667c.933 0 1.333.334 1.333 1.267v6.533c0 .934-.4 1.267-1.333 1.267H2.92c-.933 0-1.333-.333-1.333-1.267z" stroke="#48CD90" stroke-width="1.5" stroke-linecap="round" stroke-linejoin="round"/></svg>