<svg width="144" height="39" fill="none" xmlns="http://www.w3.org/2000/svg"><path d="M70.712 21.28c.683 0 1.259-.235 1.728-.704.49-.47.736-1.045.736-1.728v-2.08c0-.683-.245-1.259-.736-1.728a2.298 2.298 0 00-1.728-.736H54.84v6.976h15.872zm6.304-2.432c0 .875-.17 1.696-.512 2.464a6.279 6.279 0 01-1.344 1.984 6.238 6.238 0 01-1.984 1.376c-.768.32-1.59.48-2.464.48H54.84V28H51V10.464l19.712-.032c.875 0 1.696.17 2.464.512.768.32 1.43.768 1.984 1.344a6.184 6.184 0 011.344 2.016c.341.768.512 1.59.512 2.464v2.08zm23.119 5.312l2.24-2.976h-8.128a1013.7 1013.7 0 00-8.096-.032V17.28c3.115 0 6.219.01 9.312.032h9.344c.555 0 1.024.15 1.408.448.405.299.704.672.896 1.12.192.427.267.896.224 1.408a2.68 2.68 0 01-.544 1.408L102.023 28H86.279a6.34 6.34 0 01-2.464-.48 6.941 6.941 0 01-2.016-1.344 6.941 6.941 0 01-1.344-2.016 6.341 6.341 0 01-.48-2.464v-4.928c0-.875.16-1.696.48-2.464.341-.768.79-1.44 1.344-2.016a6.184 6.184 0 012.016-1.344 5.998 5.998 0 012.464-.512h19.712v3.872H86.279c-.683 0-1.27.245-1.76.736-.47.47-.704 1.045-.704 1.728v4.928c0 .683.235 1.27.704 1.76.49.47 1.077.704 1.76.704h13.856zm9.909 3.84V12.512c0-.576.16-1.077.48-1.504.32-.427.704-.725 1.152-.896a2.65 2.65 0 011.472-.096c.533.085.992.352 1.376.8l11.488 13.248L137.5 10.816c.384-.448.832-.715 1.344-.8.533-.107 1.024-.075 1.472.096.469.17.864.47 1.184.896.32.427.48.928.48 1.504V28h-3.808V15.808l-10.24 11.808a2.484 2.484 0 01-.896.672c-.342.15-.694.224-1.056.224-.342 0-.683-.075-1.024-.224a2.568 2.568 0 01-.864-.672l-10.24-11.808V28h-3.808z" fill="#000"/><path fill-rule="evenodd" clip-rule="evenodd" d="M16.421 3.29a16.5 16.5 0 0119.065 12.124l2.907-.743A19.5 19.5 0 1039 19.5V18h-8.602c-.731-5.366-5.332-9.5-10.898-9.5-6.075 0-11 4.925-11 11s4.925 11 11 11c5.566 0 10.167-4.134 10.898-9.5h5.534a16.5 16.5 0 11-19.51-17.71zM27.36 18H19v3h8.36a8 8 0 110-3z" fill="#000"/></svg>