<svg width="1200" height="731" fill="none" xmlns="http://www.w3.org/2000/svg"><path d="M48 0v-1h-.414l-.293.293L48 0zm1152 0h1v-1h-1v1zM0 48l-.707-.707-.293.293V48h1zm0 683h-1v1h1v-1zm937.5 0v1h.414l.293-.293-.707-.707zm48.5-48.5v-1h-.414l-.293.293.707.707zm166.5 0v1h.41l.3-.293-.71-.707zM1200 635l.71.707.29-.293V635h-1zm0-167h1v-.546l-.46-.295-.54.841zm-12-7.722h-1v.545l.46.296.54-.841zm0-282.556l-.54-.841-.46.296v.545h1zm12-7.722l.54.841.46-.295V170h-1zM48 1h1152v-2H48v2zM.707 48.707l48-48-1.414-1.414-48 48 1.414 1.414zM1 731V48h-2v683h2zm936.5-1H0v2h937.5v-2zm47.793-48.207l-48.5 48.5 1.414 1.414 48.5-48.5-1.414-1.414zm167.207-.293H986v2h166.5v-2zm46.79-47.207l-47.5 47.5 1.42 1.414 47.5-47.5-1.42-1.414zM1199 468v167h2V468h-2zm1.54-.841l-12-7.722-1.08 1.682 12 7.722 1.08-1.682zm-11.54-6.881V177.722h-2v282.556h2zm-.46-281.715l12-7.722-1.08-1.682-12 7.722 1.08 1.682zM1199 0v170h2V0h-2z" fill="#F2E311" mask="url(#path-1-inside-1_1622_824)"/></svg>