<svg preserveAspectRatio="xMinYMax slice" width="586" height="600" fill="none" xmlns="http://www.w3.org/2000/svg" xmlns:xlink="http://www.w3.org/1999/xlink"><mask id="a" style="mask-type:alpha" maskUnits="userSpaceOnUse" x="0" y="0" width="586" height="600"><path d="M0 600V12L12 0h574-292.501l7.709 12H574l12 12v564l-12 12H0z" fill="#D9D9D9"/></mask><g mask="url(#a)"><rect width="100%" height="100%" fill="url(#pattern0)"/></g><mask id="b" fill="#fff"><path fill-rule="evenodd" clip-rule="evenodd" d="M0 600V12L12 0h574-292.501l7.709 12H574l12 12v564l-12 12H0z"/></mask><path fill="#F2E311" mask="url(#b)" d="M293.499-.5H293v1h.499v-1zM0 12l-.707-.707-.293.293V12h1zm0 588h-1v1h1v-1zM12 0v-1h-.414l-.293.293L12 0zm281.499 0v-1h-1.831l.99 1.54.841-.54zm7.709 12l-.841.54.295.46h.546v-1zM574 12l.707-.707-.293-.293H574v1zm12 12h1v-.414l-.293-.293L586 24zm0 564l.707.707.293-.293V588h-1zm-12 12v1h.414l.293-.293L574 600zM-1 12v588h2V12h-2zM11.293-.707l-12 12 1.414 1.414 12-12-1.414-1.414zM586-1H12v2h574v-2zM293.499 1H586v-2H293.499v2zm8.551 10.46l-7.709-12-1.683 1.08 7.709 12 1.683-1.08zM574 11H301.208v2H574v-2zm12.707 12.293l-12-12-1.414 1.414 12 12 1.414-1.414zM587 588V24h-2v564h2zm-12.293 12.707l12-12-1.414-1.414-12 12 1.414 1.414zM0 601h574v-2H0v2z"/><defs><pattern id="pattern0" patternContentUnits="userSpaceOnUse" width="1" height="1" x="0" y="0"><use xlink:href="#image0_38_3013"/></pattern><image id="image0_38_3013" width="100%" height="100%" preserveAspectRatio="xMinYMin slice" xlink:href="img/@@img.webp"/></defs></svg>