<svg width="384" height="616" fill="none" xmlns="http://www.w3.org/2000/svg"><g filter="url(#filter0_b_1665_2647)"><mask id="a" fill="#fff"><path fill-rule="evenodd" clip-rule="evenodd" d="M384 0H12L0 12v604h372l12-12V0zM0 139v322l12-12.5v-297L0 139z"/></mask><path fill-rule="evenodd" clip-rule="evenodd" d="M384 0H12L0 12v604h372l12-12V0zM0 139v322l12-12.5v-297L0 139z" fill="#000" fill-opacity=".6"/><path d="M12 0v-1h-.414l-.293.293L12 0zm372 0h1v-1h-1v1zM0 12l-.707-.707-.293.293V12h1zm0 127h-1 1zm0 477h-1v1h1v-1zm372 0v1h.414l.293-.293L372 616zm12-12l.707.707.293-.293V604h-1zM0 461h-1v2.486l1.721-1.793L0 461zm12-12.5l.721.693.279-.291v-.402h-1zm0-297h1v-.402l-.279-.291-.721.693zM12 1h372v-2H12v2zM.707 12.707l12-12-1.414-1.414-12 12 1.414 1.414zM1 139V12h-2v127h2zm0 477V139h-2v477h2zm371-1H0v2h372v-2zm11.293-11.707l-12 12 1.414 1.414 12-12-1.414-1.414zM383 0v604h2V0h-2zM-1 139v322h2V139h-2zM.721 461.693l12-12.5-1.442-1.386-12 12.5 1.442 1.386zM13 448.5v-297h-2v297h2zm-.279-297.693l-12-12.5-1.442 1.386 12 12.5 1.442-1.386z" fill="#F2E311" mask="url(#a)"/></g><defs><filter id="filter0_b_1665_2647" x="-30" y="-30" width="444" height="676" filterUnits="userSpaceOnUse" color-interpolation-filters="sRGB"><feFlood flood-opacity="0" result="BackgroundImageFix"/><feGaussianBlur in="BackgroundImageFix" stdDeviation="15"/><feComposite in2="SourceAlpha" operator="in" result="effect1_backgroundBlur_1665_2647"/><feBlend in="SourceGraphic" in2="effect1_backgroundBlur_1665_2647" result="shape"/></filter></defs></svg>