<svg xmlns="http://www.w3.org/2000/svg" width="1200" height="560" fill="none"><mask id="a" fill="#fff"><path fill-rule="evenodd" clip-rule="evenodd" d="M12 0h1188v560H604.826L471 446H136L0 310V12L12 0z"/></mask><path fill-rule="evenodd" clip-rule="evenodd" d="M12 0h1188v560H604.826L471 446H136L0 310V12L12 0z" fill="#000" fill-opacity=".15"/><path d="M1200 0h1v-1h-1v1zM12 0v-1h-.414l-.293.293L12 0zm1188 560v1h1v-1h-1zm-595.174 0l-.648.761.28.239h.368v-1zM471 446l.648-.761-.28-.239H471v1zm-335 0l-.707.707.293.293H136v-1zM0 310h-1v.414l.293.293L0 310zM0 12l-.707-.707-.293.293V12h1zM1200-1H12v2h1188v-2zm1 561V0h-2v560h2zm-596.174 1H1200v-2H604.826v2zm.649-1.761l-133.827-114-1.296 1.522 133.826 114 1.297-1.522zM471 445H136v2h335v-2zm-334.293.293l-136-136-1.414 1.414 136 136 1.414-1.414zM-1 12v298h2V12h-2zM11.293-.707l-12 12 1.414 1.414 12-12-1.414-1.414z" fill="#F2E311" mask="url(#a)"/></svg>