<svg class="product-card__mask" width="282" height="460" fill="none" xmlns="http://www.w3.org/2000/svg"><path d="M0 0v-1h-1v1h1zm270 0l.707-.707-.293-.293H270v1zM0 460h-1v1h1v-1zm270 0v1h.414l.293-.293L270 460zm12-12l.707.707.293-.293V448h-1zm0-58.042h1v-.402l-.279-.29-.721.692zM271 378.5h-1v.402l.279.291.721-.693zm0-297l-.721-.692-.279.29v.402h1zm11-11.458l.721.692.279-.29v-.402h-1zM282 12h1v-.414l-.293-.293L282 12zM0 1h270v-2H0v2zm1 459V0h-2v460h2zm269-1H0v2h270v-2zm11.293-11.707l-12 12 1.414 1.414 12-12-1.414-1.414zM281 389.958V448h2v-58.042h-2zm1.721-.692l-11-11.459-1.442 1.386 11 11.458 1.442-1.385zM272 378.5v-297h-2v297h2zm-.279-296.308l11-11.458-1.442-1.385-11 11.459 1.442 1.384zM281 12v58.042h2V12h-2zM269.293.707l12 12 1.414-1.414-12-12-1.414 1.414z" fill="#F2E311" mask="url(#path-1-inside-1_1620_47)"/></svg>