<svg xmlns="http://www.w3.org/2000/svg" width="160" height="200" fill="none"><path d="M0 0v-1h-1v1h1zm148 0l.707-.707-.293-.293H148v1zM0 200h-1v1h1v-1zm148 0v1h.414l.293-.293L148 200zm12-12l.707.707.293-.293V188h-1zm0-27h1v-.402l-.279-.291L160 161zm-12-12.5h-1v.402l.279.291.721-.693zm0-97l-.721-.693-.279.29v.403h1zM160 39l.721.693.279-.29V39h-1zm0-27h1v-.414l-.293-.293L160 12zM0 1h148v-2H0v2zm1 199V0h-2v200h2zm147-1H0v2h148v-2zm11.293-11.707l-12 12 1.414 1.414 12-12-1.414-1.414zM159 161v27h2v-27h-2zm1.721-.693l-12-12.5-1.442 1.386 12 12.5 1.442-1.386zM149 148.5v-97h-2v97h2zm-.279-96.308l12-12.5-1.442-1.385-12 12.5 1.442 1.386zM159 12v27h2V12h-2zM147.293.707l12 12 1.414-1.414-12-12-1.414 1.414z" fill="#F2E311" mask="url(#path-1-inside-1_1743_1147)"/></svg>