<svg width="107" height="35" fill="none" xmlns="http://www.w3.org/2000/svg"><path d="M15.275 32.438c7.87 0 14.251-6.542 14.251-14.61 0-8.07-6.38-14.612-14.251-14.612-7.871 0-14.252 6.542-14.252 14.611 0 8.07 6.381 14.61 14.252 14.61z" fill="#26A17B"/><path d="M16.794 19.176v-.003c-.098.007-.607.038-1.739.038-.905 0-1.54-.026-1.764-.038v.003c-3.48-.158-6.076-.778-6.076-1.523 0-.742 2.598-1.364 6.076-1.522v2.427c.227.016.88.056 1.78.056 1.082 0 1.623-.047 1.723-.056v-2.424c3.474.16 6.063.78 6.063 1.522s-2.591 1.362-6.063 1.522m0-3.296v-2.17h4.846v-3.31H8.447v3.31h4.846v2.17c-3.938.186-6.898.984-6.898 1.943 0 .958 2.962 1.757 6.898 1.945v6.958h3.504V19.77c3.931-.186 6.887-.984 6.887-1.943 0-.956-2.956-1.757-6.887-1.942m24.834-4.579v3.51h3.327v2.633h-3.35v5.34c0 1.178.635 1.754 1.565 1.754.465 0 1.004-.15 1.444-.376l.831 2.607c-.854.35-1.565.5-2.47.527-2.616.1-4.328-1.428-4.328-4.513V17.45H36.4v-2.633h2.25v-3.183l2.981-.327zm57.356 3.345l.22 1.428c.931-1.529 2.177-1.754 3.4-1.754 1.247 0 2.445.5 3.105 1.177l-1.345 2.656c-.612-.526-1.173-.803-2.151-.803-1.565 0-3.009.853-3.009 3.134v6.518h-2.983v-12.36l2.763.004zm-7.31 4.738c-.196-1.604-1.42-2.407-3.13-2.407-1.614 0-2.936.803-3.376 2.407h6.505zm-6.554 2.533c.195 1.529 1.492 2.633 3.595 2.633 1.1 0 2.543-.428 3.228-1.154l1.907 1.931c-1.272 1.353-3.35 2.006-5.185 2.006-4.157 0-6.629-2.633-6.629-6.593 0-3.761 2.495-6.47 6.409-6.47 4.035 0 6.555 2.559 6.09 7.647h-9.415zM71.967 9.46v6.868c1.077-1.428 2.397-1.855 3.767-1.855 3.423 0 4.94 2.382 4.94 6.018v6.518H77.69v-6.492c0-2.258-1.15-3.209-2.74-3.209-1.762 0-2.983 1.53-2.983 3.385v6.319h-2.983V9.462l2.983-.002zm-7.923 1.705v3.51h3.327v2.633h-3.35v5.34c0 1.178.637 1.754 1.565 1.754.465 0 1.004-.15 1.443-.376l.832 2.608a6.55 6.55 0 01-2.47.526c-2.616.1-4.328-1.43-4.328-4.513v-5.339h-2.25v-2.633h2.25v-3.183l2.981-.327zm-8.242 8.224c-.194-1.604-1.418-2.407-3.13-2.407-1.612 0-2.934.803-3.374 2.407h6.504zm-6.552 2.533c.194 1.529 1.491 2.633 3.594 2.633 1.1 0 2.544-.428 3.229-1.154l1.906 1.931c-1.271 1.353-3.35 2.006-5.185 2.006-4.158 0-6.628-2.633-6.628-6.593 0-3.761 2.495-6.47 6.406-6.47 4.035 0 6.553 2.559 6.09 7.647H49.25z" fill="#fff"/></svg>