<svg width="122" height="27" fill="none" xmlns="http://www.w3.org/2000/svg"><path d="M107.183 13.578c0-3.312-2.516-5.991-6.07-5.991-3.484 0-5.965 2.576-5.965 6.116 0 3.557 2.551 6.15 6.211 6.15 2.323 0 4.276-1.034 5.49-3.137l-2.463-1.139c-.581 1.052-1.848 1.735-3.027 1.735-1.495 0-3.219-1.121-3.325-2.68h9.061c.058-.349.087-.701.088-1.054zm-9.096-1.013c.211-1.577 1.302-2.61 3.044-2.61 1.724 0 2.779 1.012 2.92 2.61h-5.964zm-24.82-4.981c-3.572 0-6.105 2.56-6.105 6.17 0 3.573 2.533 6.097 6.14 6.097 3.625 0 6.158-2.524 6.158-6.046 0-3.627-2.603-6.22-6.193-6.22zm.036 9.585c-1.796 0-2.904-1.331-2.904-3.399 0-2.103 1.126-3.54 2.904-3.54 1.794 0 2.92 1.42 2.92 3.54 0 2.086-1.108 3.4-2.92 3.4zM60.548 7.588c-1.463 0-2.565.498-3.667 1.732h-.362c-.74-1.115-1.949-1.732-3.304-1.732a4.288 4.288 0 00-3.483 1.732h-.362l-.018-.017V7.828h-3.028v11.766h3.272v-6.055c0-1.955.827-3.104 2.256-3.104 1.326 0 2.187.978 2.187 2.47v6.689h3.289v-6.055c0-1.94.827-3.104 2.274-3.104 1.308 0 2.152.978 2.152 2.487v6.672h3.29v-7.067c0-3.07-1.654-4.94-4.496-4.94zm53.911 7.925h-.233c0-.209-1.427-3.935-2.362-6.244l-.585-1.443h-3.297l4.677 11.806-1.843 4.5h3.274l6.735-16.302h-3.299l-.538 1.234-1.824 4.495c-.514 1.256-.725 1.838-.705 1.954zM88.534 7.588c-1.464 0-2.721.634-3.565 1.767h-.345l-.034-.017v-1.51h-3.03v11.766h3.272v-6.02c0-1.92.933-3.122 2.463-3.122 1.43 0 2.48 1.063 2.48 2.743v6.398h3.272v-7.1c0-2.881-1.894-4.905-4.513-4.905z" fill="#fff"/><path d="M24.103.844c-7.069 0-12.75 5.695-12.75 12.656 0 7.018 5.737 12.656 12.749 12.656 7.011 0 12.753-5.695 12.753-12.656 0-6.96-5.74-12.656-12.752-12.656zm0 17.373c-2.607 0-4.75-2.128-4.75-4.717 0-2.589 2.143-4.717 4.75-4.717 2.608 0 4.752 2.128 4.752 4.717-.058 2.589-2.144 4.717-4.752 4.717zM11.353 4.52v18.41H6.836L1.041 4.52h10.312z" fill="#8B3FFD"/></svg>