<svg width="103" height="22" fill="none" xmlns="http://www.w3.org/2000/svg"><g clip-path="url(#clip0_1825_4360)"><path d="M21.181 13.662c-1.436 5.893-7.27 9.48-13.033 8.01C2.39 20.202-1.117 14.234.32 8.342 1.756 2.447 7.59-1.139 13.35.33c5.762 1.469 9.268 7.438 7.831 13.331z" fill="#F7931A"/><path d="M15.492 9.434c.214-1.463-.876-2.25-2.366-2.775l.484-1.983-1.18-.3-.47 1.93a48.2 48.2 0 00-.946-.228l.474-1.943-1.18-.3-.483 1.981c-.257-.06-.509-.119-.753-.18v-.007l-1.626-.416-.314 1.29s.875.205.857.217c.478.122.564.446.55.702l-.55 2.259a.963.963 0 01.122.04l-.125-.031-.771 3.164c-.059.148-.207.371-.541.286.012.018-.858-.219-.858-.219l-.586 1.382 1.536.391c.286.074.565.15.841.223l-.488 2.005 1.178.3.484-1.983c.322.089.634.171.94.25l-.482 1.974 1.18.3.488-2c2.012.389 3.525.232 4.162-1.63.513-1.499-.026-2.363-1.084-2.927.77-.182 1.352-.7 1.507-1.772zm-2.696 3.867c-.365 1.499-2.832.688-3.632.485l.648-2.656c.8.204 3.365.608 2.984 2.171zm.365-3.888c-.333 1.363-2.386.67-3.052.5l.587-2.41c.666.17 2.811.487 2.465 1.91zm18.35-2.756c.872 0 1.626.16 2.259.473a4.567 4.567 0 011.582 1.281c.415.54.724 1.17.924 1.894.198.724.298 1.504.298 2.338 0 1.281-.23 2.492-.693 3.633a9.45 9.45 0 01-1.892 2.98 8.896 8.896 0 01-2.831 2.003c-1.087.492-2.268.738-3.536.738-.164 0-.452-.005-.86-.014a12.253 12.253 0 01-1.4-.124 16.075 16.075 0 01-1.674-.335 8.264 8.264 0 01-1.674-.613L26.722.673 30.94.005l-1.686 7.181a6.47 6.47 0 011.087-.389c.364-.092.753-.14 1.17-.14zm-3.537 11.918a3.63 3.63 0 001.795-.474 4.757 4.757 0 001.459-1.267 6.436 6.436 0 001.32-3.886c0-.89-.146-1.585-.436-2.087-.29-.5-.827-.752-1.606-.752-.256 0-.585.05-.993.139-.409.094-.775.29-1.104.586l-1.795 7.627c.108.02.204.038.286.056a2.879 2.879 0 00.585.058h.489zm12.974 3.035H36.92l3.402-14.643h4.056l-3.43 14.643zm1.96-16.427a2.463 2.463 0 01-1.524-.514c-.456-.341-.682-.866-.682-1.574 0-.389.078-.754.23-1.098.156-.344.36-.64.614-.891.255-.25.55-.45.884-.6a2.647 2.647 0 011.077-.221c.562 0 1.069.17 1.523.514.452.345.68.87.68 1.573 0 .39-.077.757-.232 1.1-.153.345-.357.64-.611.892-.253.25-.55.449-.884.598-.337.15-.694.221-1.075.221zm4.999-1.864l4.219-.669-1.036 4.316h4.518l-.816 3.396h-4.49l-1.197 5.122a5.89 5.89 0 00-.19 1.196c-.02.372.026.692.135.961.108.27.303.478.585.625.28.15.683.225 1.21.225a6.31 6.31 0 001.268-.126 8.83 8.83 0 001.236-.348l.3 3.175c-.544.204-1.133.38-1.768.528-.636.15-1.39.222-2.26.222-1.251 0-2.221-.19-2.913-.569-.69-.381-1.178-.902-1.47-1.561-.288-.657-.416-1.414-.38-2.268.037-.855.163-1.754.38-2.7l2.669-11.525zm7.525 12.443c0-1.26.2-2.45.598-3.564a8.808 8.808 0 011.716-2.925 8.041 8.041 0 012.71-1.975c1.058-.481 2.243-.724 3.55-.724.817 0 1.547.079 2.19.237.645.16 1.229.367 1.757.626l-1.39 3.231c-.363-.15-.74-.283-1.129-.403-.39-.123-.865-.182-1.428-.182-1.345 0-2.408.474-3.199 1.419-.788.945-1.185 2.218-1.185 3.815 0 .946.2 1.712.6 2.297.399.585 1.135.876 2.204.876a6.92 6.92 0 001.525-.166 7.389 7.389 0 001.307-.417l.3 3.312c-.509.202-1.07.385-1.687.545-.618.154-1.353.234-2.206.234-1.125 0-2.078-.168-2.857-.5-.78-.337-1.424-.784-1.931-1.35a5.12 5.12 0 01-1.103-1.993 8.345 8.345 0 01-.342-2.393zm17.895 6.236c-.962 0-1.797-.15-2.505-.447a4.626 4.626 0 01-1.754-1.252 5.446 5.446 0 01-1.048-1.907c-.238-.732-.352-1.544-.352-2.433 0-1.116.175-2.23.529-3.343a9.54 9.54 0 011.566-3.005 8.418 8.418 0 012.53-2.189c.995-.564 2.14-.848 3.427-.848.944 0 1.775.15 2.493.447a4.657 4.657 0 011.769 1.252c.46.54.81 1.174 1.045 1.908.237.731.354 1.545.354 2.435a11.32 11.32 0 01-.515 3.342 9.732 9.732 0 01-1.525 3.006 8.038 8.038 0 01-2.517 2.184c-1.006.566-2.172.85-3.497.85zm2.013-11.915a2.51 2.51 0 00-1.577.528 4.52 4.52 0 00-1.142 1.337 6.72 6.72 0 00-.696 1.768 7.788 7.788 0 00-.23 1.823c0 .929.146 1.652.434 2.173.292.518.817.779 1.58.779.599 0 1.124-.176 1.579-.53a4.539 4.539 0 001.142-1.336c.308-.537.54-1.127.696-1.768a7.9 7.9 0 00.23-1.823c0-.927-.146-1.652-.437-2.172-.29-.518-.817-.779-1.579-.779zM85.77 21.61h-4.032L85.14 6.967h4.058L85.77 21.61zm1.957-16.427a2.458 2.458 0 01-1.523-.514c-.454-.341-.681-.866-.681-1.574 0-.389.078-.754.231-1.098a2.904 2.904 0 011.498-1.49 2.628 2.628 0 011.073-.222c.563 0 1.072.17 1.525.514.454.345.682.87.682 1.573 0 .39-.08.757-.233 1.1a2.89 2.89 0 01-.61.892c-.256.25-.55.449-.885.598a2.61 2.61 0 01-1.077.221zm4.375 2.45c.305-.092.647-.202 1.018-.321a14.702 14.702 0 012.804-.584 17.04 17.04 0 011.945-.098c2.124 0 3.589.632 4.398 1.894.807 1.262.947 2.99.423 5.178l-1.853 7.906h-4.055l1.796-7.74c.11-.483.196-.95.26-1.407.063-.452.06-.85-.015-1.196a1.438 1.438 0 00-.502-.836c-.266-.213-.668-.32-1.212-.32-.526 0-1.06.058-1.605.17l-2.64 11.329h-4.057l3.295-13.975z" fill="#fff"/></g><defs><clipPath id="clip0_1825_4360"><path fill="#fff" d="M0 0h103v22H0z"/></clipPath></defs></svg>