<svg width="123" height="18" fill="none" xmlns="http://www.w3.org/2000/svg"><g clip-path="url(#clip0_1825_4104)" fill="#fff"><path d="M19.731 17.119L22.554.382h4.514L24.243 17.12h-4.512zM40.554.743C39.66.403 38.258.04 36.508.04c-4.461 0-7.603 2.27-7.63 5.523-.025 2.405 2.243 3.747 3.956 4.548 1.757.82 2.348 1.343 2.34 2.076-.012 1.122-1.404 1.634-2.702 1.634-1.807 0-2.767-.254-4.25-.878l-.581-.266-.634 3.746c1.055.468 3.005.872 5.03.893 4.745 0 7.825-2.244 7.86-5.718.017-1.904-1.185-3.353-3.79-4.547-1.578-.775-2.544-1.291-2.534-2.075 0-.696.818-1.44 2.586-1.44a8.254 8.254 0 013.379.641l.404.193.612-3.627zM52.17.382h-3.488c-1.08 0-1.89.298-2.364 1.388l-6.705 15.338h4.74s.776-2.062.951-2.515l5.782.007c.135.586.549 2.508.549 2.508h4.189L52.171.381zM46.636 11.19c.374-.965 1.8-4.68 1.8-4.68-.027.045.37-.968.598-1.597l.305 1.443 1.045 4.833h-3.748zM15.9.382l-4.42 11.414-.47-2.32c-.824-2.674-3.387-5.57-6.253-7.02l4.041 14.636 4.777-.005L20.68.382H15.9"/><path d="M7.355.381H.075L.018.73c5.663 1.385 9.41 4.733 10.966 8.756L9.401 1.795C9.128.735 8.336.419 7.355.382"/></g><g clip-path="url(#clip1_1825_4104)"><path d="M107.443 7.958V16.6h4.814v-5.12h5.456a5.34 5.34 0 004.982-3.521h-15.252z" fill="#37A72E"/><path d="M106.801.835c.281 3.53 3.634 6.322 7.726 6.322h8.368c.064-.32.096-.656.096-1 0-2.93-2.366-5.298-5.295-5.322h-10.895z" fill="url(#paint0_linear_1825_4104)"/><path d="M99.678 7.07a.29.29 0 01.545.128v9.323h4.814V.835h-4.814c-.61.024-1.3.464-1.556 1.016l-3.827 8.196a.484.484 0 01-.04.096.323.323 0 01-.586-.184V.835H89.4V16.52h4.814c.602-.032 1.276-.472 1.533-1.016l3.93-8.412c-.007-.008 0-.016 0-.024zm-17.972.271l-2.817 9.18h-3.465l-2.809-9.188a.312.312 0 00-.313-.256.313.313 0 00-.312.312v9.124h-4.814V.827h5.359c.883 0 1.813.688 2.07 1.528L76.948 10c.12.384.305.376.425 0l2.343-7.644c.257-.848 1.187-1.528 2.07-1.528h5.359v15.686h-4.814V7.382a.313.313 0 00-.313-.312.326.326 0 00-.313.272z" fill="#37A72E"/></g><defs><clipPath id="clip0_1825_4104"><path fill="#fff" d="M0 0h55.84v17.356H0z"/></clipPath><clipPath id="clip1_1825_4104"><path fill="#fff" transform="translate(67.16 .755)" d="M0 0h55.84v15.847H0z"/></clipPath><linearGradient id="paint0_linear_1825_4104" x1="106.803" y1="3.996" x2="122.99" y2="3.996" gradientUnits="userSpaceOnUse"><stop stop-color="#00A0E5"/><stop offset="1" stop-color="#0077C3"/></linearGradient></defs></svg>