<svg width="110" height="31" fill="none" xmlns="http://www.w3.org/2000/svg"><g clip-path="url(#clip0_1825_4446)" fill="#fff"><path d="M15.554.089C7.013.089.088 6.993.088 15.509c0 8.515 6.925 15.42 15.466 15.42 8.54 0 15.465-6.904 15.465-15.42C31.002 6.993 24.094.089 15.554.089zm.23 15.915l-1.598 5.418h8.594c.302 0 .498.283.426.567l-.745 2.567a.591.591 0 01-.568.425H8.753l2.22-7.49-2.45.762.532-1.77 2.468-.762 3.125-10.516a.591.591 0 01.568-.425h3.32c.302 0 .498.283.427.567l-2.646 8.887 2.45-.761-.532 1.788-2.45.744zM39.951 4.762h-.959c-.177 0-.301.107-.337.284L36.17 24.68c-.017.194.036.283.231.283h.959c.195 0 .302-.089.337-.283L40.2 5.046c.053-.195-.053-.284-.249-.284zm5.025 5.666h-.959c-.177 0-.302.088-.337.283l-1.776 13.986c-.018.195.089.284.267.284h.958c.178 0 .302-.089.338-.284l1.758-13.968c.017-.195-.054-.301-.249-.301zm42.013-.23c-1.332 0-2.486.371-3.463 1.133-.976.761-1.616 1.752-1.935 2.992-.267 1.009-.497 2.425-.604 3.381-.142 1.293-.266 2.355-.266 3.382.017 1.257.426 2.248 1.19 3.01.78.743 1.846 1.133 3.195 1.133 1.315 0 2.469-.372 3.445-1.134.977-.743 1.616-1.752 1.936-3.01.213-.831.426-1.947.603-3.38.178-1.488.267-2.621.267-3.4 0-1.24-.39-2.23-1.172-2.974-.8-.762-1.865-1.133-3.196-1.133zm2.699 6.143a53.765 53.765 0 00-.16 1.363c-.178 1.452-.338 2.479-.48 3.098-.213.921-.674 1.665-1.367 2.231-.692.567-1.51.832-2.415.832-.923 0-1.651-.283-2.202-.832-.55-.549-.816-1.274-.816-2.178 0-.477.053-1.08.142-1.788s.142-1.168.16-1.363c.177-1.38.337-2.408.479-3.098.213-.92.675-1.664 1.367-2.23.693-.567 1.51-.833 2.415-.833.923 0 1.651.283 2.202.815.55.548.817 1.274.817 2.177 0 .514-.054 1.098-.142 1.806zm7.138-5.913h-.941c-.178 0-.302.106-.338.283l-1.793 13.986c-.018.195.089.284.266.284h.96c.177 0 .3-.089.336-.284l1.758-13.968c.018-.195-.053-.301-.248-.301zm12.108.832c-.657-.69-1.58-1.027-2.787-1.027-.782 0-1.492.142-2.149.443a4.361 4.361 0 00-1.669 1.345c-.089.071-.124.053-.124-.053l.142-1.24c.017-.176-.054-.283-.231-.283h-.959c-.178 0-.302.107-.337.284l-1.758 13.968c-.018.177.035.284.23.284h.959c.178 0 .302-.107.32-.284l1.279-10.02c.213-.938.657-1.7 1.313-2.249.657-.549 1.439-.832 2.362-.832.852 0 1.527.266 2.024.797.497.531.746 1.24.746 2.142 0 .266-.018.478-.035.637l-1.226 9.525c0 .089 0 .142.036.195a.306.306 0 00.231.089h.959c.177 0 .301-.089.319-.284l1.225-9.755c.036-.39.054-.672.054-.867.053-1.204-.267-2.142-.924-2.815zM45.598 4.78c-.568-.3-1.296-.088-1.58.496a1.191 1.191 0 00.497 1.593 1.178 1.178 0 001.083-2.089zm51.92 0c-.568-.3-1.296-.088-1.58.496a1.192 1.192 0 00.497 1.593 1.199 1.199 0 001.598-.495 1.21 1.21 0 00-.515-1.594zm-23.031 5.418c-1.332 0-2.486.39-3.463 1.133-.976.761-1.616 1.752-1.935 2.992-.266 1.009-.515 2.602-.604 3.381-.124 1.133-.266 2.355-.266 3.382.018 1.257.426 2.248 1.19 3.01.78.743 1.846 1.133 3.195 1.133 1.314 0 2.469-.372 3.445-1.134.977-.743 1.616-1.752 1.936-3.01.017-.105.053-.212.07-.318a.132.132 0 00-.124-.16h-1.19c-.07 0-.16.036-.177.142 0 .018-.018.053-.018.053-.213.921-.674 1.665-1.367 2.231-.692.567-1.51.832-2.415.832-.923 0-1.651-.283-2.201-.832-.55-.549-.817-1.274-.817-2.178 0-.477.053-1.08.142-1.788.07-.602.142-1.168.16-1.363.177-1.38.337-2.408.48-3.098.212-.92.674-1.664 1.366-2.23.693-.567 1.51-.833 2.415-.833.906 0 1.651.266 2.202.815.55.548.817 1.274.817 2.177v.018c0 .124.106.23.23.23h1.12c.088 0 .177-.07.177-.177v-.336c0-1.24-.39-2.231-1.172-2.975-.8-.726-1.847-1.097-3.196-1.097zm-9.64 1.132c-.782-.743-1.847-1.132-3.179-1.132-1.331 0-2.486.371-3.462 1.133-.977.761-1.616 1.752-1.936 2.992-.266 1.009-.39 1.912-.603 3.381-.196 1.452-.267 2.355-.267 3.382.018 1.257.427 2.248 1.19 3.01.781.743 1.847 1.133 3.196 1.133 1.314 0 2.468-.372 3.445-1.134.976-.743 1.616-1.752 1.935-3.01.018-.105.054-.212.071-.318.018-.088-.035-.16-.124-.16h-1.19c-.07 0-.16.036-.177.142a.178.178 0 01-.018.053c-.213.921-.675 1.665-1.367 2.231-.693.567-1.51.832-2.415.832-.923 0-1.651-.283-2.202-.832-.55-.549-.817-1.274-.817-2.178 0-.424.036-.956.107-1.557l8.63-2.674c.177-.053.248-.141.284-.354.053-.442.088-1.204.088-1.983-.017-1.115-.408-2.213-1.19-2.956zm-.338 4.02a.173.173 0 01-.142.177l-7.156 2.213v-.036c.178-1.38.338-2.408.48-3.098.213-.92.675-1.664 1.367-2.23.693-.567 1.51-.833 2.415-.833.923 0 1.651.283 2.202.815.87.902.888 1.823.834 2.992zm-12.394 8.09c.177-.088.373.036.337.23l-.124.956a.39.39 0 01-.213.284c-.852.318-2.042.46-3.001.035-1.1-.496-1.385-1.576-1.225-2.921l1.26-10.25.178-1.47.426-3.258c.018-.195.142-.283.338-.283h.923c.213 0 .266.124.23.283l-.55 4.639h3.001c.178 0 .249.106.249.283l-.09.673a.45.45 0 01-.088.23c-.053.053-.16.07-.23.07h-2.984l-1.047 8.41c-.107.903-.231 1.718.23 2.16.604.496 1.776.213 2.38-.07z"/></g><defs><clipPath id="clip0_1825_4446"><path fill="#fff" d="M0 0h110v31H0z"/></clipPath></defs></svg>