<svg width="114" height="38" fill="none" xmlns="http://www.w3.org/2000/svg"><path d="M8.425 19.244C4.807 10.28 1.982 2.777 2.131 2.582c.198-.146 6.096.73 13.085 1.949l12.788 2.29 3.32 3.264 3.272 3.313-9.22 11.058c-5.105 6.09-9.516 11.06-9.813 11.06-.298.048-3.47-7.308-7.138-16.272zm7.733 3.264c.446-3.557.743-6.528.644-6.626-.1-.049-2.082-1.656-4.411-3.508-6.593-5.31-6.146-5.066-5.353-3.118.396.926 2.379 5.798 4.41 10.816 2.033 4.97 3.718 9.013 3.768 8.964.05-.049.495-2.972.942-6.528zm7.781-.341c3.172-3.752 5.65-6.87 5.601-6.967-.148-.146-9.814 1.462-10.111 1.656-.248.147-1.537 9.793-1.586 11.352 0 .633.099 1.072.198.974.1-.097 2.776-3.264 5.898-7.015zm2.974-9.013l3.42-.633-1.487-1.462c-1.685-1.656-1.834-1.608-5.551 1.608-1.289 1.12-1.487 1.461-.744 1.266.546-.097 2.528-.487 4.362-.78zm-5.551-2.046c1.685-1.413 2.875-2.582 2.627-2.68-1.636-.39-14.77-2.582-15.068-2.484-.396.146 8.377 7.6 9.02 7.648.15.05 1.686-1.072 3.42-2.484zm84.409 10.815l-5.898-6.82-.149 6.09c-.099 5.7-.198 6.09-1.09 6.09-.942 0-.991-.39-.991-9.014 0-4.969.099-9.013.198-9.013.149 0 2.875 2.972 6.096 6.626l5.849 6.626.149-5.895c.099-5.505.198-5.895 1.09-5.895.942 0 .991.39.991 9.013 0 4.97-.049 9.013-.148 9.013-.099 0-2.825-3.07-6.097-6.82zm-60.668-.487c0-5.505.05-5.846.992-5.846s.991.34.991 5.846c0 5.505-.05 5.846-.991 5.846-.942 0-.992-.341-.992-5.846zm2.975 0c0-5.505.05-5.846.991-5.846.942 0 .992.34.992 5.846 0 5.505-.05 5.846-.992 5.846-.941 0-.99-.341-.99-5.846zM58.486 19v-8.282h5.75c3.123 0 6.146.244 6.691.487.496.293 1.289 1.17 1.685 1.949 1.19 2.24.942 4.14-.743 6.04L70.332 20.9l1.537 2.923c.793 1.608 1.487 3.07 1.487 3.215 0 .147-.496.244-1.09.244-.893 0-1.537-.73-2.875-3.166-1.636-3.021-1.834-3.167-3.569-3.167h-1.884v3.166c0 2.826-.099 3.167-.99 3.167-.893 0-.992-.34-.992-4.092v-4.044l3.767-.243c3.866-.244 4.758-.731 5.403-2.68.198-.828-.05-1.413-.942-2.338-1.14-1.12-1.636-1.218-5.502-1.218h-4.213v7.307c0 6.967-.05 7.308-.991 7.308-.942 0-.992-.34-.992-8.282zm24.04 7.551c-5.155-1.802-7.187-7.99-4.065-12.423 1.487-2.192 4.015-3.41 7.088-3.41 6.146 0 10.012 6.382 7.286 12.033-1.586 3.362-6.443 5.165-10.31 3.8zm6.939-3.166c2.726-2.534 2.825-6.382.198-8.818-3.965-3.654-10.409-1.072-10.359 4.092.05 2.485.843 3.995 2.776 5.262 1.933 1.315 5.7 1.023 7.385-.536z" fill="#D61719"/><path d="M84.26 18.805c0-1.023.248-1.267 1.288-1.267 1.041 0 1.24.195 1.09 1.121-.098.682-.544 1.12-1.238 1.218-.942.146-1.14-.049-1.14-1.072zm16.357 5.067c0-3.07.099-3.41.991-3.41.893 0 .992.34.992 3.41 0 3.069-.099 3.41-.992 3.41-.892 0-.991-.341-.991-3.41zm-60.47-12.18c0-.925.346-.974 7.434-.974s7.435.049 7.435.974c0 .926-.347.975-7.435.975-7.088 0-7.434-.049-7.434-.975z" fill="#D61719"/></svg>