<svg width="88" height="39" fill="none" xmlns="http://www.w3.org/2000/svg"><g clip-path="url(#clip0_1825_4249)"><path d="M43.115 22.1h1.381v3.049h.997l1.79-3.05h1.507l-2.147 3.58v.023l2.276 3.909h-1.561l-1.84-3.278h-.998v3.275h-1.38v-7.509h-.025zm8.897 1.989c1.66 0 3.015 1.184 3.015 2.824 0 1.664-1.33 2.822-2.99 2.822-1.661 0-2.992-1.158-2.992-2.822-.027-1.664 1.304-2.824 2.967-2.824zm4.087.127h1.306v4.234h1.711v-4.234h1.303v4.234h1.712v-4.234h1.306v5.392H56.15v-5.392h-.051zm11.2-.127c1.555 0 2.426 1.134 2.426 2.546a3.71 3.71 0 01-.051.53h-3.76c.078.933.82 1.436 1.637 1.436a2.691 2.691 0 001.561-.58l.535.959a3.54 3.54 0 01-2.198.782c-1.814 0-2.94-1.288-2.94-2.825 0-1.688 1.15-2.848 2.787-2.848h.002zm3.062 4.385c.667-.101 1.153-.652 1.153-2.57v-1.688h3.988v5.392h-1.358v-4.305h-1.327v.604c0 2.342-.64 3.704-2.456 3.754v-1.187zm9.026-4.382c1.558 0 2.426 1.13 2.426 2.546a3.712 3.712 0 01-.05.527h-3.757c.075.933.817 1.436 1.636 1.436a2.69 2.69 0 001.559-.58l.537.959a3.54 3.54 0 01-2.198.782c-1.816 0-2.942-1.288-2.942-2.825 0-1.688 1.153-2.845 2.79-2.845zm3.552.124h1.355v2.067h.663l1.33-2.067h1.507l-1.738 2.57v.027l1.943 2.795h-1.583l-1.432-2.191h-.715v2.19h-1.357v-5.39h.027zm-30.927 4.361c.895 0 1.633-.68 1.633-1.687a1.608 1.608 0 00-.455-1.187 1.652 1.652 0 00-1.18-.504c-.893 0-1.61.681-1.61 1.688 0 1.006.714 1.687 1.612 1.687v.003zm16.334-2.345c0-.704-.489-1.134-1.102-1.134-.69 0-1.2.453-1.33 1.134h2.432zm12.09 0c0-.704-.487-1.134-1.1-1.134-.69 0-1.201.453-1.33 1.134h2.43z" fill="#fff"/><path d="M62.209 5.74v12.73a.339.339 0 01-.102.251.35.35 0 01-.256.1h-2.633a.35.35 0 01-.333-.216.34.34 0 01-.024-.136V5.741a.339.339 0 01.103-.253.35.35 0 01.257-.1h2.63a.352.352 0 01.336.216c.018.043.026.09.025.137h-.003zm20.55-.351c.102 0 .231.05.36.15.075.075.075.202.051.303l-4.348 12.755a.36.36 0 01-.33.224h-2.351c-.156 0-.282-.074-.333-.225l-2.532-7.437-2.53 7.435a.359.359 0 01-.331.227h-2.357c-.15 0-.28-.074-.33-.227L63.38 5.842c-.024-.101-.024-.202.05-.302.055-.101.181-.151.283-.151h2.94c.153 0 .282.1.33.251l2.327 7.535 2.558-7.535a.36.36 0 01.33-.228h2.072c.15 0 .28.077.33.228l2.559 7.535 2.327-7.535a.347.347 0 01.33-.251h2.943zm4.447 0c.18 0 .333.15.36.352v12.728a.338.338 0 01-.103.253.349.349 0 01-.257.1h-2.63a.351.351 0 01-.336-.216.338.338 0 01-.025-.137V5.741a.339.339 0 01.103-.253.35.35 0 01.257-.1h2.63zm-29.877 12.98c.15.177.024.429-.207.429H53.9a.416.416 0 01-.33-.154l-.537-.651a7.28 7.28 0 01-3.859 1.13 7.182 7.182 0 01-4.91-2.13 6.984 6.984 0 01-2.017-4.901c0-1.83.724-3.589 2.017-4.902a7.182 7.182 0 014.91-2.13c1.281 0 2.54.34 3.641.984a7.08 7.08 0 012.622 2.677 6.955 6.955 0 01-.257 7.175l2.15 2.473zm-26.918 6.176c.666.251.922 1.234.973 1.66.102.782-.13 1.084-.385 1.084s-.612-.302-.997-.906c-.384-.604-.537-1.285-.33-1.637.126-.228.409-.329.739-.201zm-3.886 2.848c.412 0 .871.178 1.28.527.792.657 1.02 1.412.612 1.966-.228.278-.613.453-1.048.453-.435 0-.895-.148-1.201-.426-.715-.607-.919-1.614-.46-2.168a.991.991 0 01.817-.352zm-8.944 7.283a17.76 17.76 0 01-9.768-2.923 17.393 17.393 0 01-6.475-7.781 17.114 17.114 0 01-1-10.017A17.265 17.265 0 015.15 5.078 17.662 17.662 0 0114.152.333a17.816 17.816 0 0110.159.986 17.533 17.533 0 017.891 6.385 17.165 17.165 0 012.965 9.631 17.263 17.263 0 01-2.48 8.897c-.051.074-.18.05-.204-.05-.613-4.26-3.246-6.602-7.08-7.31-.33-.05-.385-.252.05-.302 1.174-.1 2.838-.077 3.706.074.19-1.608.032-3.237-.462-4.78a11.439 11.439 0 00-2.404-4.177 11.633 11.633 0 00-3.927-2.84 11.78 11.78 0 00-4.761-1.008c-6.414 0-11.63 5.145-11.63 11.47 0 6.324 5.216 11.47 11.633 11.47h.534a15.258 15.258 0 01-.228-3.1c.03-.708.18-.809.486-.255 1.613 2.748 3.913 5.22 8.41 6.203 3.682.805 7.363 1.738 11.324 6.703.36.43-.18.882-.589.53-4.038-3.53-7.717-4.69-11.068-4.69-3.756.027-6.311.503-8.893.503l-.003.003zm33.356-19.13l-1.405-1.687c-.154-.177-.027-.456.204-.456h2.963a3.71 3.71 0 00.232-1.311c0-2.09-1.586-3.908-3.757-3.908-2.174 0-3.759 1.817-3.759 3.908 0 2.09 1.585 3.881 3.76 3.881.612.027 1.224-.148 1.762-.426z" fill="#FF8C00"/></g><defs><clipPath id="clip0_1825_4249"><path fill="#fff" d="M0 0h88v39H0z"/></clipPath></defs></svg>