<svg width="91" height="46" fill="none" xmlns="http://www.w3.org/2000/svg"><path d="M78.687 13.13v11.247H74.7v-7.89h-3.841v7.89H66.87V13.13h11.818z" fill="#fff"/><path fill-rule="evenodd" clip-rule="evenodd" d="M58.679 24.779c3.57 0 6.222-2.204 6.222-5.546 0-3.234-1.956-5.334-5.226-5.334-1.509 0-2.754.535-3.692 1.458.224-1.907 1.826-3.3 3.59-3.3l3.471-.006 1.733-3.339S60.93 8.8 59.14 8.8c-4.086.072-6.846 3.811-6.846 8.353 0 5.291 2.692 7.626 6.384 7.626zm.021-7.923c1.326 0 2.245.877 2.245 2.377 0 1.35-.816 2.462-2.245 2.465-1.366 0-2.285-1.03-2.285-2.442 0-1.5.92-2.4 2.285-2.4z" fill="#fff"/><path d="M49.048 20.612s-.942.546-2.35.65c-1.617.048-3.058-.98-3.058-2.808 0-1.782 1.272-2.804 3.018-2.804 1.07 0 2.487.747 2.487.747s1.036-1.914 1.573-2.872c-.983-.75-2.292-1.162-3.815-1.162-3.844 0-6.821 2.524-6.821 6.069 0 3.59 2.798 6.054 6.82 5.98 1.125-.042 2.676-.44 3.622-1.051l-1.476-2.75z" fill="#fff"/><path d="M0 10.013l5.533 9.957v6.073L.006 35.981 0 10.013z" fill="#5B57A2"/><path d="M21.244 16.346l5.185-3.199 10.61-.01-15.795 9.742v-6.533z" fill="#D90751"/><path d="M21.216 9.954l.03 13.183-5.547-3.431V0l5.517 9.954z" fill="#FAB718"/><path d="M37.04 13.137l-10.61.01-5.214-3.193L15.699 0l21.342 13.137z" fill="#ED6F26"/><path d="M21.245 36.036V29.64L15.7 26.274 15.702 46l5.543-9.964z" fill="#63B22F"/><path d="M26.417 32.866L5.533 19.97 0 10.013l37.018 22.84-10.601.013z" fill="#1487C9"/><path d="M15.703 46l5.542-9.964 5.172-3.17 10.601-.013L15.703 46z" fill="#017F36"/><path d="M.006 35.98l15.737-9.705-5.29-3.268-4.92 3.036-5.527 9.938z" fill="#984995"/><path d="M43.642 31.946a1.147 1.147 0 01-.475.354c-.197.08-.408.122-.621.121a1.753 1.753 0 01-.622-.105 1.358 1.358 0 01-.794-.769 1.608 1.608 0 01-.112-.609 1.512 1.512 0 01.409-1.05 1.436 1.436 0 011.035-.434c.228 0 .44.03.632.087.192.057.355.153.49.287l-.234.399a1.097 1.097 0 00-.39-.23 1.37 1.37 0 00-.427-.067.988.988 0 00-.682.277 1.019 1.019 0 00-.295.733 1.012 1.012 0 00.304.738c.093.09.202.156.327.201.125.048.257.07.398.07.172 0 .33-.035.464-.102.133-.065.253-.155.353-.265l.24.364zm.66.408v-2.838h.506v2.114l1.647-2.114h.506v2.838h-.506V30.24l-1.647 2.114h-.506zm6.014-.408c-.125.157-.288.28-.474.354a1.64 1.64 0 01-.622.121 1.75 1.75 0 01-.621-.105 1.357 1.357 0 01-.795-.769 1.61 1.61 0 01-.113-.609c0-.207.036-.399.11-.58a1.396 1.396 0 01.756-.785c.182-.081.38-.121.58-.118.227 0 .438.029.63.086.193.057.356.153.491.287l-.234.399a1.093 1.093 0 00-.39-.23 1.37 1.37 0 00-.427-.067.984.984 0 00-.682.278 1.017 1.017 0 00-.295.733 1.012 1.012 0 00.304.737c.093.09.202.156.327.201.125.045.256.07.397.07.174 0 .327-.035.465-.102.133-.065.253-.155.352-.265l.24.364zm.26-2.43h2.598v.504h-1.045v2.334h-.506V30.02h-1.045v-.505h-.003z" fill="#fff"/><path fill-rule="evenodd" clip-rule="evenodd" d="M55.537 32.326c.193-.06.356-.154.497-.28l-.154-.396a1.186 1.186 0 01-.368.21 1.4 1.4 0 01-.507.086c-.278 0-.509-.073-.692-.223-.182-.15-.282-.36-.304-.629h2.192c.022-.099.032-.21.032-.34a1.293 1.293 0 00-.388-.942 1.254 1.254 0 00-.423-.264 1.604 1.604 0 00-1.144.022c-.172.073-.328.18-.458.316a1.336 1.336 0 00-.285.469 1.647 1.647 0 00-.1.58c0 .223.04.427.11.61a1.322 1.322 0 00.788.769 1.91 1.91 0 001.205.013zm-1.281-2.185c.157-.144.365-.214.628-.214.246 0 .445.067.59.201.144.134.22.32.233.555h-1.73a.868.868 0 01.279-.542z" fill="#fff"/><path d="M56.922 29.515h.461l1.096 1.407 1.038-1.407h.449v2.84h-.506v-2.07l-.987 1.317h-.02l-1.025-1.318v2.07h-.506v-2.839z" fill="#fff"/><path fill-rule="evenodd" clip-rule="evenodd" d="M61.342 29.525c-.153.04-.3.104-.435.188l.134.402a3.19 3.19 0 01.346-.146c.116-.042.263-.062.44-.062.14 0 .253.023.339.068a.45.45 0 01.195.182.78.78 0 01.09.283c.016.112.023.233.023.364a.865.865 0 00-.346-.144 1.973 1.973 0 00-.366-.038 1.6 1.6 0 00-.426.06.938.938 0 00-.343.173.82.82 0 00-.224.284.887.887 0 00-.083.386c0 .277.08.494.24.648.16.153.371.229.634.229.237 0 .427-.041.57-.124.145-.084.26-.179.344-.287v.366h.474v-1.741c0-.37-.08-.657-.244-.858-.16-.201-.445-.303-.849-.303-.18 0-.35.025-.513.07zm.847 2.3c-.115.083-.266.12-.452.12-.163 0-.292-.04-.381-.12a.422.422 0 01-.135-.326.4.4 0 01.051-.207.472.472 0 01.138-.147.614.614 0 01.196-.086.881.881 0 01.224-.029c.25 0 .464.06.64.188v.36a1.462 1.462 0 01-.281.247zm5.229-3.308a.78.78 0 00.288-.245l-.276-.4a.556.556 0 01-.24.199 1.515 1.515 0 01-.295.082l-.096.018-.269.046a1.983 1.983 0 00-.448.14c-.228.1-.41.233-.548.402-.138.17-.247.36-.32.572a3.012 3.012 0 00-.151.66c-.026.23-.039.45-.039.66 0 .271.035.517.106.737.07.22.17.405.3.555.132.153.29.268.475.35.186.084.394.125.628.125.215 0 .414-.041.593-.118a1.429 1.429 0 00.763-.778c.073-.176.109-.364.109-.562 0-.213-.032-.408-.093-.58a1.255 1.255 0 00-.263-.443 1.169 1.169 0 00-.42-.288 1.448 1.448 0 00-.907-.054 1.37 1.37 0 00-.586.344.937.937 0 00-.186.272h-.013c.01-.131.026-.265.055-.402s.07-.268.125-.393c.055-.124.125-.236.211-.338a.96.96 0 01.333-.239c.14-.067.288-.115.44-.143l.1-.019c.1-.018.196-.036.287-.055.122-.025.234-.058.337-.105zm-1.782 2.727a1.597 1.597 0 01-.07-.497.804.804 0 01.115-.271.949.949 0 01.208-.23c.189-.149.421-.229.66-.226.298 0 .523.092.68.274.157.185.234.414.234.692 0 .137-.026.262-.07.376a.905.905 0 01-.488.507.927.927 0 01-.381.077.873.873 0 01-.692-.325 1.202 1.202 0 01-.196-.377zm6.245-1.729h-.507v2.84h.507v-2.84zm-3.153 0h.506v.852h.468c.221 0 .4.029.545.083a.93.93 0 01.346.217.76.76 0 01.183.312c.035.118.054.24.054.367 0 .128-.02.25-.06.37a.841.841 0 01-.197.322.94.94 0 01-.365.23c-.154.058-.34.09-.564.09h-.92v-2.843h.004zm.506 1.327v1.04h.369c.253 0 .432-.044.535-.134.103-.09.154-.217.154-.386a.496.496 0 00-.157-.392c-.106-.09-.282-.134-.526-.134h-.375v.006z" fill="#fff"/><path d="M75.23 31.946a1.147 1.147 0 01-.475.354c-.197.08-.408.122-.621.121a1.753 1.753 0 01-.622-.105 1.375 1.375 0 01-.48-.3 1.364 1.364 0 01-.314-.469 1.616 1.616 0 01-.112-.609 1.512 1.512 0 01.409-1.05c.129-.133.282-.235.456-.315.182-.081.38-.121.58-.118.227 0 .439.029.63.086.193.057.356.153.49.287l-.233.399a1.099 1.099 0 00-.391-.23 1.37 1.37 0 00-.426-.067.974.974 0 00-.897.597c-.055.124-.08.261-.08.414a1.012 1.012 0 00.304.737c.093.09.202.156.327.201.125.045.256.07.397.07.173 0 .327-.035.465-.102.133-.065.253-.155.353-.265l.24.364zm.259-2.43h2.599v.504h-1.045v2.334h-.506V30.02h-1.045v-.505h-.003z" fill="#fff"/><path fill-rule="evenodd" clip-rule="evenodd" d="M79.145 29.516h-.506v4.101h.506v-1.393c.103.067.224.115.365.146.141.032.288.048.44.048a1.456 1.456 0 001.076-.44 1.4 1.4 0 00.3-.485c.071-.188.107-.39.107-.603 0-.21-.032-.405-.093-.58a1.352 1.352 0 00-.263-.453 1.141 1.141 0 00-.413-.297 1.322 1.322 0 00-.548-.108c-.199 0-.385.038-.56.115a1.083 1.083 0 00-.41.283v-.334zm.353.526a.987.987 0 01.47-.115c.148 0 .28.022.398.07a.792.792 0 01.292.204c.08.09.14.192.18.313.04.121.06.252.06.396 0 .153-.026.29-.07.417a.897.897 0 01-.506.539 1.002 1.002 0 01-.414.08c-.138 0-.266-.016-.388-.047a1.264 1.264 0 01-.374-.173V30.32c.089-.108.208-.2.352-.277zm5.818-.527h-.507v2.84h.507v-2.84zm-3.156 0h.506v.852h.468c.221 0 .4.029.545.083.144.054.26.128.346.217.086.09.147.195.182.312.036.118.055.24.055.367 0 .128-.02.25-.06.37a.842.842 0 01-.197.322.94.94 0 01-.365.23c-.154.058-.34.09-.564.09h-.92v-2.843h.004zm.51 1.327v1.04h.368c.253 0 .433-.044.535-.134.103-.09.154-.217.154-.386 0-.172-.054-.303-.157-.392-.106-.09-.282-.134-.525-.134h-.375v.006z" fill="#fff"/><path d="M87.746 30.884l1.083 1.47h-.622l-.836-1.148-.85 1.148h-.589l1.077-1.445-1.013-1.394h.622l.772 1.072.785-1.072h.59l-1.02 1.369zm-44.479 4.979h-1.554v2.367h-.506v-2.84h2.566v2.839h-.506v-2.367zm3.38.032h-1l-.032.478c-.035.405-.083.73-.15.98-.067.248-.15.44-.247.573a.71.71 0 01-.336.272 1.158 1.158 0 01-.413.07l-.039-.491a.41.41 0 00.189-.042.529.529 0 00.208-.207c.068-.109.129-.262.183-.46.054-.2.09-.462.109-.79l.051-.884h1.984v2.839h-.507v-2.338z" fill="#fff"/><path fill-rule="evenodd" clip-rule="evenodd" d="M48.518 35.398a1.58 1.58 0 00-.436.188l.135.402a2.94 2.94 0 01.346-.147 1.31 1.31 0 01.439-.06.74.74 0 01.34.066.45.45 0 01.195.182.79.79 0 01.09.284c.016.112.022.233.022.363a.863.863 0 00-.346-.143 1.972 1.972 0 00-.365-.038c-.15 0-.292.022-.426.06a.936.936 0 00-.343.173.82.82 0 00-.225.283.887.887 0 00-.083.386c0 .278.08.495.24.648.16.153.372.23.635.23.237 0 .426-.042.57-.125.144-.083.26-.179.343-.287v.367h.474v-1.742c0-.37-.08-.657-.243-.858-.16-.2-.446-.303-.85-.303a1.93 1.93 0 00-.512.07zm.85 2.299a.76.76 0 01-.452.121c-.167 0-.292-.041-.381-.121a.421.421 0 01-.135-.325c0-.08.016-.147.051-.208a.467.467 0 01.138-.146.603.603 0 01.195-.087.88.88 0 01.225-.028c.25 0 .464.06.64.188v.36a1.461 1.461 0 01-.282.246z" fill="#fff"/><path d="M50.62 35.391h2.598v.504h-1.045v2.335h-.506v-2.335h-1.044v-.504h-.004z" fill="#fff"/><path fill-rule="evenodd" clip-rule="evenodd" d="M55.583 38.201c.192-.06.355-.153.496-.28l-.154-.396a1.184 1.184 0 01-.368.21c-.15.058-.32.087-.506.087-.279 0-.51-.074-.692-.224-.183-.15-.282-.36-.305-.628h2.192c.022-.099.032-.21.032-.341a1.294 1.294 0 00-.388-.941 1.248 1.248 0 00-.423-.265 1.604 1.604 0 00-1.144.022c-.172.073-.328.18-.458.316a1.343 1.343 0 00-.285.469 1.656 1.656 0 00-.1.58c0 .224.039.428.11.61a1.317 1.317 0 00.789.769 1.898 1.898 0 001.204.012zm-1.285-2.188c.157-.143.365-.214.628-.214.25 0 .445.07.59.201.144.134.22.32.233.555h-1.73a.868.868 0 01.279-.542zm2.227-.622h.64l.977 1.369-1.044 1.47h-.621l1.095-1.47-1.047-1.369zm1.742 0h.507v2.839h-.507v-2.84zm2.317 2.839l-1.115-1.47 1.041-1.37h-.628l-.983 1.37 1.057 1.47h.628zm2.313-.029c.193-.06.356-.153.497-.28l-.154-.396a1.186 1.186 0 01-.368.21c-.151.058-.32.087-.507.087-.278 0-.509-.074-.692-.224-.182-.15-.282-.36-.304-.628h2.192c.022-.099.032-.21.032-.341a1.288 1.288 0 00-.388-.941 1.252 1.252 0 00-.423-.265 1.4 1.4 0 00-.516-.096c-.237 0-.445.041-.628.118a1.331 1.331 0 00-.743.785 1.649 1.649 0 00-.1.58c0 .224.039.428.11.61a1.317 1.317 0 00.788.769c.202.072.416.108.63.105.196-.002.389-.033.574-.093zm-1.284-2.188c.157-.143.365-.214.628-.214.247 0 .445.07.59.201.144.134.22.32.233.555h-1.73a.867.867 0 01.279-.542zm4.034-1.576c-.298 0-.462-.166-.487-.497h-.478c0 .127.023.242.064.35a.75.75 0 00.183.278.94.94 0 00.301.185c.119.048.256.07.413.07a1 1 0 00.388-.07.919.919 0 00.295-.185.805.805 0 00.189-.277.901.901 0 00.067-.351h-.474c-.022.331-.18.497-.461.497zm-1.369.954v2.839h.507l1.647-2.115v2.115h.506v-2.84h-.507l-1.646 2.116V35.39h-.507z" fill="#fff"/></svg>