<svg width="65" height="20" fill="none" xmlns="http://www.w3.org/2000/svg"><g clip-path="url(#clip0_1631_2426)" fill="#797209"><path d="M22.967 19.727L26.252.44h5.255L28.22 19.727h-5.252zM47.205.856c-1.04-.39-2.672-.81-4.71-.81-5.192 0-8.85 2.616-8.881 6.365-.03 2.771 2.611 4.317 4.604 5.24 2.046.945 2.734 1.548 2.724 2.392-.013 1.293-1.634 1.883-3.144 1.883-2.103 0-3.22-.292-4.947-1.012l-.677-.306-.737 4.317c1.227.539 3.497 1.005 5.853 1.03 5.524 0 9.11-2.587 9.151-6.59.02-2.194-1.38-3.864-4.412-5.24-1.837-.893-2.962-1.488-2.95-2.392 0-.801.952-1.659 3.01-1.659a9.692 9.692 0 013.933.74l.47.222.713-4.18zM60.728.44h-4.06c-1.258 0-2.2.343-2.752 1.6L46.11 19.713h5.519s.901-2.376 1.106-2.898l6.73.008c.157.675.639 2.89.639 2.89h4.876L60.728.44zm-6.443 12.454c.435-1.111 2.094-5.391 2.094-5.391-.03.05.432-1.117.697-1.841l.355 1.663 1.217 5.569h-4.363zM18.505.44l-5.144 13.153-.548-2.673c-.958-3.081-3.942-6.42-7.278-8.09l4.704 16.866 5.56-.006L24.073.44h-5.567"/><path opacity=".5" d="M8.56.44H.087L.02.84c6.592 1.597 10.954 5.455 12.765 10.091l-1.842-8.863C10.625.847 9.702.483 8.56.44"/></g><defs><clipPath id="clip0_1631_2426"><path fill="#fff" d="M0 0h65v20H0z"/></clipPath></defs></svg>