<svg width="67" height="19" fill="none" xmlns="http://www.w3.org/2000/svg"><g clip-path="url(#clip0_1631_2429)"><path d="M48.336 8.589v10.41h5.778V12.83h6.55a6.412 6.412 0 005.98-4.241H48.336z" fill="#797209"/><path d="M47.565.01c.338 4.25 4.363 7.615 9.275 7.615h10.044A6.407 6.407 0 0060.644.01H47.565z" fill="#B5AB0D"/><path d="M39.014 7.52a.345.345 0 01.308-.184.35.35 0 01.346.337v11.23h5.779V.01h-5.779c-.731.029-1.56.559-1.868 1.224l-4.594 9.871a.585.585 0 01-.048.116.387.387 0 01-.703-.222V.01h-5.778v18.895h5.778c.722-.039 1.531-.569 1.84-1.224l4.718-10.132c-.01-.01 0-.02 0-.029zm-21.573.327l-3.38 11.057H9.9L6.53 7.837a.375.375 0 00-.376-.308.376.376 0 00-.376.376v10.989H0V0h6.433c1.06 0 2.177.829 2.485 1.841l2.812 9.206c.144.463.366.453.51 0l2.813-9.206C15.36.82 16.478 0 17.537 0h6.434v18.894h-5.779V7.895a.376.376 0 00-.375-.376.392.392 0 00-.376.328z" fill="#797209"/></g><defs><clipPath id="clip0_1631_2429"><path fill="#fff" d="M0 0h67v19H0z"/></clipPath></defs></svg>