<svg width="47" height="35" fill="none" xmlns="http://www.w3.org/2000/svg"><g clip-path="url(#clip0_1631_2437)"><path d="M46.051 34.515v.09h.088a.096.096 0 00.047-.012.041.041 0 00.013-.015.038.038 0 00.004-.02.038.038 0 00-.017-.033.086.086 0 00-.047-.011h-.088zm.089-.064a.168.168 0 01.105.03.093.093 0 01.037.08.088.088 0 01-.03.069.148.148 0 01-.084.033l.117.128h-.09l-.108-.127h-.035v.127h-.076v-.34h.165-.001zm-.024.458a.294.294 0 00.21-.084.28.28 0 00-.094-.463.322.322 0 00-.233 0 .286.286 0 00-.177.21.278.278 0 00.08.256c.028.026.06.046.097.06a.302.302 0 00.117.023m0-.652c.103 0 .202.039.276.108a.36.36 0 01.114.259.348.348 0 01-.114.259.398.398 0 01-.276.108.405.405 0 01-.279-.108.378.378 0 01-.112-.263.348.348 0 01.113-.259.405.405 0 01.279-.108m-35.966-1.31c0-.648.444-1.18 1.17-1.18.693 0 1.16.51 1.16 1.18 0 .672-.467 1.182-1.16 1.182-.726 0-1.17-.533-1.17-1.181zm3.121 0V31.1h-.838v.45c-.266-.333-.67-.541-1.218-.541-1.08 0-1.928.811-1.928 1.938 0 1.126.847 1.937 1.928 1.937.548 0 .952-.209 1.218-.54v.447h.837v-1.845h.001zm28.325 0c0-.648.444-1.18 1.17-1.18.694 0 1.16.51 1.16 1.18 0 .672-.466 1.182-1.16 1.182-.726 0-1.17-.533-1.17-1.181zm3.122 0V29.62h-.839v1.93c-.266-.332-.67-.54-1.218-.54-1.08 0-1.928.811-1.928 1.938 0 1.126.847 1.937 1.928 1.937.549 0 .952-.209 1.218-.54v.447h.839v-1.845zm-21.043-1.219c.54 0 .888.324.976.895h-2c.09-.533.427-.895 1.025-.895m.016-.719c-1.13 0-1.92.787-1.92 1.937 0 1.174.822 1.938 1.976 1.938.581 0 1.113-.139 1.58-.517l-.41-.595a1.89 1.89 0 01-1.122.386c-.54 0-1.032-.24-1.153-.903h2.863c.008-.1.016-.2.016-.309-.008-1.15-.751-1.937-1.83-1.937m10.12 1.937c0-.648.445-1.181 1.17-1.181.694 0 1.162.51 1.162 1.181 0 .672-.468 1.181-1.162 1.181-.725 0-1.17-.532-1.17-1.18m3.122 0V31.1h-.838v.45c-.267-.333-.67-.541-1.218-.541-1.08 0-1.928.811-1.928 1.938 0 1.126.847 1.937 1.928 1.937.549 0 .951-.209 1.218-.54v.447h.838v-1.847zm-7.855 0c0 1.118.814 1.937 2.056 1.937.581 0 .968-.124 1.386-.44l-.402-.649a1.745 1.745 0 01-1.01.333c-.67-.008-1.162-.471-1.162-1.182 0-.71.492-1.173 1.162-1.181.364 0 .694.116 1.01.332l.402-.648c-.419-.317-.806-.44-1.386-.44-1.242 0-2.056.818-2.056 1.937zm10.807-1.938a1.15 1.15 0 00-1.017.54V31.1h-.83v3.69h.839v-2.07c0-.61.274-.95.822-.95.18-.002.358.03.524.093l.259-.756c-.186-.07-.428-.1-.598-.1m-22.47.385c-.403-.254-.959-.386-1.572-.386-.976 0-1.605.448-1.605 1.181 0 .602.468.973 1.33 1.089l.396.054c.46.062.677.177.677.386 0 .285-.305.448-.879.448-.58 0-1-.178-1.282-.386l-.394.625c.46.325 1.04.48 1.67.48 1.112 0 1.758-.502 1.758-1.205 0-.648-.508-.988-1.347-1.103l-.395-.055c-.363-.045-.654-.115-.654-.362 0-.27.274-.432.734-.432.492 0 .969.177 1.202.316l.363-.649h-.002zm10.817-.385c-.484 0-.799.217-1.015.54V31.1h-.831v3.69h.838v-2.07c0-.61.274-.95.822-.95.18-.002.358.03.524.093l.259-.756c-.186-.07-.428-.1-.597-.1m-7.154.092h-1.37v-1.12h-.848v1.12h-.782v.733h.782v1.683c0 .856.347 1.366 1.34 1.366.363 0 .782-.108 1.048-.285l-.242-.687c-.25.139-.525.209-.743.209-.419 0-.555-.248-.555-.618v-1.667h1.37V31.1zM8.546 34.79v-2.315c0-.872-.58-1.459-1.516-1.467-.492-.008-1 .139-1.355.657-.266-.41-.685-.657-1.274-.657-.412 0-.814.116-1.13.548V31.1h-.838v3.69h.845v-2.046c0-.64.371-.981.944-.981.557 0 .839.347.839.973v2.053h.847v-2.046c0-.64.387-.98.943-.98.573 0 .846.347.846.972v2.053l.85.002zm37.983-12.272v-.54h-.147l-.17.37-.169-.37h-.147v.54H46v-.406l.159.35h.108l.159-.351v.407h.103zm-.932 0v-.447h.188v-.091h-.48v.09h.188v.448h.104z" fill="#797209"/><path d="M29.843 24.832H17.14V2.982h12.704v21.85z" fill="#D6CA1D"/><path d="M17.945 13.907c0-4.432 2.168-8.38 5.545-10.925-2.556-1.929-5.717-2.975-8.972-2.97C6.5.011 0 6.231 0 13.906s6.5 13.896 14.518 13.896c3.255.005 6.416-1.042 8.972-2.971-3.376-2.544-5.545-6.492-5.545-10.925z" fill="#B5AB0D"/><path d="M46.982 13.907c0 7.675-6.5 13.896-14.518 13.896-3.255.005-6.417-1.042-8.973-2.971 3.377-2.544 5.546-6.492 5.546-10.925 0-4.432-2.169-8.38-5.546-10.925 2.556-1.928 5.718-2.975 8.973-2.97 8.018 0 14.518 6.22 14.518 13.895" fill="#797209"/></g><defs><clipPath id="clip0_1631_2437"><path fill="#fff" d="M0 0h47v35H0z"/></clipPath></defs></svg>