<svg width="40" height="40" fill="none" xmlns="http://www.w3.org/2000/svg"><g clip-path="url(#clip0_1825_5085)"><path d="M23.333 20.333v-5.666c0-.934 0-1.4-.181-1.757a1.667 1.667 0 00-.729-.728C22.067 12 21.6 12 20.667 12h-3c-.934 0-1.4 0-1.757.182-.314.16-.569.414-.728.728-.182.357-.182.823-.182 1.757v3c0 .933 0 1.4.182 1.756.16.314.414.569.728.729.356.181.823.181 1.757.181h5.666zm0 0v3.334a5 5 0 01-5 5m-10-8.334v-5.666c0-.934 0-1.4-.181-1.757a1.667 1.667 0 00-.729-.728C7.067 12 6.6 12 5.667 12h-3c-.934 0-1.4 0-1.757.182-.314.16-.569.414-.728.728C0 13.267 0 13.733 0 14.667v3c0 .933 0 1.4.182 1.756.16.314.414.569.728.729.356.181.823.181 1.757.181h5.666zm0 0v3.334a5 5 0 01-5 5" stroke="#F2E311" stroke-width="2" stroke-linecap="round" stroke-linejoin="round"/></g><defs><clipPath id="clip0_1825_5085"><path fill="#fff" d="M0 0h40v40H0z"/></clipPath></defs></svg>