<svg width="80" height="80" fill="none" xmlns="http://www.w3.org/2000/svg"><path fill-rule="evenodd" clip-rule="evenodd" d="M75.292 8L40 70 4.708 8h70.584zm.57-1H80l-.58 1-38.842 67.003L40 76l-.578-.997L.58 8 0 7h4.138l.57 1H1.736L40 74.006 78.264 8h-2.972l.57-1zm0 0L77 5H3l1.138 2h71.724z" fill="#000"/><path d="M48.056 30.094c-.213-1.989-.43-3.846-.693-5.744a93.67 93.67 0 00-.863-5.242c-.055-.281-.075-.483-.06-.605.121-.967 1.374-1.234 1.86-.395.073.126.136.346.188.66.69 4.133 1.188 8.201 1.496 12.203a5.417 5.417 0 01-1.796 4.45 8.601 8.601 0 01-.891.658 37.2 37.2 0 01-7.245 3.745c-1.017.39-2.157.747-3.42 1.07-1.327.338-2.682-.149-3.542-1.18-.663-.795-1.102-2.042-1.277-3.104a248.04 248.04 0 01-1.36-9.461 96.864 96.864 0 01-.442-4.302 3.45 3.45 0 011.177-2.905c.194-.166.494-.357.898-.574 3.106-1.667 6.214-3.078 9.479-4.198.32-.11.58-.167.777-.17a2.02 2.02 0 011.905 1.22c.063.14.127.367.194.68a80.688 80.688 0 011.652 12.363 3.72 3.72 0 01-1.87 3.449 65.485 65.485 0 01-6.867 3.39c-.319.136-.526.253-.623.35-.901.914.048 2.39 1.235 1.92a50.666 50.666 0 004.734-2.144c1.398-.728 2.732-1.52 3.888-2.465 1.112-.91 1.625-2.186 1.466-3.669zm-12.29-5.584a.59.59 0 01-.39.473c-.516.186-1.02.364-1.512.535a.611.611 0 00-.21 1.043c.402.355.84.742 1.316 1.159a.63.63 0 01.23.537 59.91 59.91 0 01-.165 1.694c-.03.27-.03.465 0 .585a.78.78 0 001.272.406c.435-.375.87-.758 1.306-1.15.309-.277.6-.447 1.005-.439 1.014.019 1.96.035 2.838.047.591.008.973-.547.77-1.115-.041-.115-.166-.271-.375-.468-.49-.464-.948-.903-1.371-1.318-.207-.203-.226-.485-.1-.742L41.247 24c.189-.383 0-.846-.425-.906a.84.84 0 00-.357.046c-.542.17-1.12.35-1.735.544a.587.587 0 01-.648-.181 71.27 71.27 0 01-.947-1.145c-.26-.321-.727-.358-.968.002-.061.091-.105.23-.132.416-.087.611-.177 1.19-.269 1.734z" fill="#fff"/></svg>