<svg width="80" height="80" fill="none" xmlns="http://www.w3.org/2000/svg"><path fill-rule="evenodd" clip-rule="evenodd" d="M75.292 8L40 70 4.708 8h70.584zm.57-1H80l-.58 1-38.842 67.003L40 76l-.578-.997L.58 8 0 7h4.138l.57 1H1.736L40 74.006 78.264 8h-2.972l.57-1zm0 0L77 5H3l1.138 2h71.724z" fill="#000"/><path d="M44.157 17.236c.57-.297 1.236-.483 1.799-.43.297.03.564.151.798.367.658.605.6 1.642-.054 2.226a1.999 1.999 0 01-.575.363c-.745.307-1.475.754-1.868 1.448-.154.271-.339.438-.648.439-.854.002-1.73.002-2.625 0-.289 0-.497-.174-.633-.431-.337-.633-1.053-1.114-1.703-1.377a3.214 3.214 0 01-.51-.26c-1.332-.837-.79-2.843.768-2.783.488.018 1 .164 1.537.437.023.011.034.004.035-.022.01-.413.09-.85.248-1.205a1.703 1.703 0 011.39-1c.818-.074 1.547.362 1.827 1.164.113.325.172.672.176 1.04 0 .03.013.038.038.024zm-2.731 5.495a99.3 99.3 0 002.118.004c.453-.004.753.213 1.041.54.132.15.342.251.53.31 1.193.367 2.316.888 3.313 1.672 2.541 1.997 3.638 5.2 3.569 8.486a4.67 4.67 0 01-.13 1.041c-.546 2.146-2.656 3.197-4.565 3.683-1.295.33-2.66.504-4.094.523-.701.009-1.368.007-2-.005a16.624 16.624 0 01-2.42-.216c-.216-.036-.325-.175-.326-.414l-.001-8.113c0-.975-.783-1.69-1.694-1.693-.689 0-1.367.002-2.034.008a1.017 1.017 0 01-.39-.058c-.246-.1-.396-.404-.335-.672.016-.072.064-.173.144-.3 1.225-1.971 3.081-3.26 5.238-3.908.315-.094.524-.208.729-.445.376-.438.785-.45 1.307-.443z" fill="#fff"/><path d="M36.803 29.637h-8.198a.615.615 0 00-.605.625v1.26c0 .345.271.625.605.625h8.198c.334 0 .605-.28.605-.625v-1.26a.615.615 0 00-.605-.625zm.005 3.596h-8.207a.611.611 0 00-.601.622v.929c0 .343.27.621.601.621h8.207a.612.612 0 00.601-.621v-.93a.611.611 0 00-.6-.62zm-.004 3.257h-8.2a.615.615 0 00-.604.625v1.26c0 .345.27.625.604.625h8.2c.334 0 .604-.28.604-.625v-1.26a.615.615 0 00-.604-.625z" fill="#fff"/></svg>